<svg xmlns="http://www.w3.org/2000/svg" xmlns:xlink="http://www.w3.org/1999/xlink" xmlns:s="https://github.com/nturley/netlistsvg" width="621" height="591">
  <style>svg {
    stroke:#000;
    fill:none;
  }
  text {
    fill:#000;
    stroke:none;
    font-size:10px;
    font-weight: bold;
    font-family: "Courier New", monospace;
  }
  .nodelabel {
    text-anchor: middle;
  }
  .inputPortLabel {
    text-anchor: end;
  }
  .splitjoinBody {
    fill:#000;
  }</style>
  <g s:type="generic" transform="translate(312,256)" s:width="30" s:height="40" id="cell_$procdff$17">
    <text x="15" y="-4" class="nodelabel cell_$procdff$17" s:attribute="ref">$adff</text>
    <rect width="30" height="60" s:generic="body" class="cell_$procdff$17"/>
    <g transform="translate(0,10)" s:x="0" s:y="10" s:pid="in0" id="port_$procdff$17~ARST">
      <text x="-3" y="-4" class="inputPortLabel cell_$procdff$17">ARST</text>
    </g>
    <g transform="translate(0,30)" s:x="0" s:y="10" s:pid="in0" id="port_$procdff$17~CLK">
      <text x="-3" y="-4" class="inputPortLabel cell_$procdff$17">CLK</text>
    </g>
    <g transform="translate(0,50)" s:x="0" s:y="10" s:pid="in0" id="port_$procdff$17~D">
      <text x="-3" y="-4" class="inputPortLabel cell_$procdff$17">D</text>
    </g>
    <g transform="translate(30,10)" s:x="30" s:y="10" s:pid="out0" id="port_$procdff$17~Q">
      <text x="5" y="-4" style="fill:#000; stroke:none" class="cell_$procdff$17">Q</text>
    </g>
  </g>
  <g s:type="generic" transform="translate(312,32)" s:width="30" s:height="40" id="cell_$procdff$18">
    <text x="15" y="-4" class="nodelabel cell_$procdff$18" s:attribute="ref">$adff</text>
    <rect width="30" height="60" s:generic="body" class="cell_$procdff$18"/>
    <g transform="translate(0,10)" s:x="0" s:y="10" s:pid="in0" id="port_$procdff$18~ARST">
      <text x="-3" y="-4" class="inputPortLabel cell_$procdff$18">ARST</text>
    </g>
    <g transform="translate(0,30)" s:x="0" s:y="10" s:pid="in0" id="port_$procdff$18~CLK">
      <text x="-3" y="-4" class="inputPortLabel cell_$procdff$18">CLK</text>
    </g>
    <g transform="translate(0,50)" s:x="0" s:y="10" s:pid="in0" id="port_$procdff$18~D">
      <text x="-3" y="-4" class="inputPortLabel cell_$procdff$18">D</text>
    </g>
    <g transform="translate(30,10)" s:x="30" s:y="10" s:pid="out0" id="port_$procdff$18~Q">
      <text x="5" y="-4" style="fill:#000; stroke:none" class="cell_$procdff$18">Q</text>
    </g>
  </g>
  <g s:type="generic" transform="translate(438,446)" s:width="30" s:height="40" id="cell_$procdff$19">
    <text x="15" y="-4" class="nodelabel cell_$procdff$19" s:attribute="ref">$adff</text>
    <rect width="30" height="60" s:generic="body" class="cell_$procdff$19"/>
    <g transform="translate(0,10)" s:x="0" s:y="10" s:pid="in0" id="port_$procdff$19~ARST">
      <text x="-3" y="-4" class="inputPortLabel cell_$procdff$19">ARST</text>
    </g>
    <g transform="translate(0,30)" s:x="0" s:y="10" s:pid="in0" id="port_$procdff$19~CLK">
      <text x="-3" y="-4" class="inputPortLabel cell_$procdff$19">CLK</text>
    </g>
    <g transform="translate(0,50)" s:x="0" s:y="10" s:pid="in0" id="port_$procdff$19~D">
      <text x="-3" y="-4" class="inputPortLabel cell_$procdff$19">D</text>
    </g>
    <g transform="translate(30,10)" s:x="30" s:y="10" s:pid="out0" id="port_$procdff$19~Q">
      <text x="5" y="-4" style="fill:#000; stroke:none" class="cell_$procdff$19">Q</text>
    </g>
  </g>
  <g s:type="mux" transform="translate(445,256.5)" s:width="20" s:height="40" id="cell_$procmux$13">
    <s:alias val="$pmux"/>
    <s:alias val="$mux"/>
    <s:alias val="$_MUX_"/>
    <path d="M0,0 L20,10 L20,30 L0,40 Z" class="cell_$procmux$13"/>
    <g s:x="0" s:y="10" s:pid="A"/>
    <g s:x="0" s:y="30" s:pid="B"/>
    <g s:x="10" s:y="35" s:pid="S"/>
    <g s:x="20" s:y="20" s:pid="Y"/>
  </g>
  <g s:type="not" transform="translate(317.5,354)" s:width="30" s:height="20" id="cell_$procmux$14_CMP0">
    <s:alias val="$_NOT_"/>
    <s:alias val="$not"/>
    <s:alias val="$logic_not"/>
    <path d="M0,0 L0,20 L20,10 Z" class="cell_$procmux$14_CMP0"/>
    <circle cx="23" cy="10" r="3" class="cell_$procmux$14_CMP0"/>
    <g s:x="0" s:y="10" s:pid="A"/>
    <g s:x="25" s:y="10" s:pid="Y"/>
  </g>
  <g s:type="mux" transform="translate(539,364)" s:width="20" s:height="40" id="cell_$procmux$15">
    <s:alias val="$pmux"/>
    <s:alias val="$mux"/>
    <s:alias val="$_MUX_"/>
    <path d="M0,0 L20,10 L20,30 L0,40 Z" class="cell_$procmux$15"/>
    <g s:x="0" s:y="10" s:pid="A"/>
    <g s:x="0" s:y="30" s:pid="B"/>
    <g s:x="10" s:y="35" s:pid="S"/>
    <g s:x="20" s:y="20" s:pid="Y"/>
  </g>
  <g s:type="mux" transform="translate(182.33333333333334,486.5)" s:width="20" s:height="40" id="cell_$procmux$2">
    <s:alias val="$pmux"/>
    <s:alias val="$mux"/>
    <s:alias val="$_MUX_"/>
    <path d="M0,0 L20,10 L20,30 L0,40 Z" class="cell_$procmux$2"/>
    <g s:x="0" s:y="10" s:pid="A"/>
    <g s:x="0" s:y="30" s:pid="B"/>
    <g s:x="10" s:y="35" s:pid="S"/>
    <g s:x="20" s:y="20" s:pid="Y"/>
  </g>
  <g s:type="eq" transform="translate(96.66666666666667,549)" s:width="25" s:height="25" id="cell_$procmux$3_CMP0">
    <s:alias val="$eq"/>
    <circle r="12.5" cx="12.5" cy="12.5" class="cell_$procmux$3_CMP0"/>
    <line x1="7.5" x2="17.5" y1="10" y2="10" class="cell_$procmux$3_CMP0"/>
    <line x1="7.5" x2="17.5" y1="15" y2="15" class="cell_$procmux$3_CMP0"/>
    <g s:x="3" s:y="5" s:pid="A"/>
    <g s:x="3" s:y="20" s:pid="B"/>
    <g s:x="25" s:y="12.5" s:pid="Y"/>
  </g>
  <g s:type="mux" transform="translate(319,476.5)" s:width="20" s:height="40" id="cell_$procmux$4">
    <s:alias val="$pmux"/>
    <s:alias val="$mux"/>
    <s:alias val="$_MUX_"/>
    <path d="M0,0 L20,10 L20,30 L0,40 Z" class="cell_$procmux$4"/>
    <g s:x="0" s:y="10" s:pid="A"/>
    <g s:x="0" s:y="30" s:pid="B"/>
    <g s:x="10" s:y="35" s:pid="S"/>
    <g s:x="20" s:y="20" s:pid="Y"/>
  </g>
  <g s:type="mux" transform="translate(445,97.5)" s:width="20" s:height="40" id="cell_$procmux$7">
    <s:alias val="$pmux"/>
    <s:alias val="$mux"/>
    <s:alias val="$_MUX_"/>
    <path d="M0,0 L20,10 L20,30 L0,40 Z" class="cell_$procmux$7"/>
    <g s:x="0" s:y="10" s:pid="A"/>
    <g s:x="0" s:y="30" s:pid="B"/>
    <g s:x="10" s:y="35" s:pid="S"/>
    <g s:x="20" s:y="20" s:pid="Y"/>
  </g>
  <g s:type="eq" transform="translate(317.3333333333333,135)" s:width="25" s:height="25" id="cell_$procmux$8_CMP0">
    <s:alias val="$eq"/>
    <circle r="12.5" cx="12.5" cy="12.5" class="cell_$procmux$8_CMP0"/>
    <line x1="7.5" x2="17.5" y1="10" y2="10" class="cell_$procmux$8_CMP0"/>
    <line x1="7.5" x2="17.5" y1="15" y2="15" class="cell_$procmux$8_CMP0"/>
    <g s:x="3" s:y="5" s:pid="A"/>
    <g s:x="3" s:y="20" s:pid="B"/>
    <g s:x="25" s:y="12.5" s:pid="Y"/>
  </g>
  <g s:type="mux" transform="translate(539,87.5)" s:width="20" s:height="40" id="cell_$procmux$9">
    <s:alias val="$pmux"/>
    <s:alias val="$mux"/>
    <s:alias val="$_MUX_"/>
    <path d="M0,0 L20,10 L20,30 L0,40 Z" class="cell_$procmux$9"/>
    <g s:x="0" s:y="10" s:pid="A"/>
    <g s:x="0" s:y="30" s:pid="B"/>
    <g s:x="10" s:y="35" s:pid="S"/>
    <g s:x="20" s:y="20" s:pid="Y"/>
  </g>
  <g s:type="inputExt" transform="translate(165,276.5)" s:width="30" s:height="20" id="cell_clk">
    <text x="15" y="-4" class="nodelabel cell_clk" s:attribute="ref">clk</text>
    <s:alias val="$_inputExt_"/>
    <path d="M0,0 L0,20 L15,20 L30,10 L15,0 Z" class="cell_clk"/>
    <g s:x="28" s:y="10" s:pid="Y"/>
  </g>
  <g s:type="inputExt" transform="translate(165,211.5)" s:width="30" s:height="20" id="cell_rst">
    <text x="15" y="-4" class="nodelabel cell_rst" s:attribute="ref">rst</text>
    <s:alias val="$_inputExt_"/>
    <path d="M0,0 L0,20 L15,20 L30,10 L15,0 Z" class="cell_rst"/>
    <g s:x="28" s:y="10" s:pid="Y"/>
  </g>
  <g s:type="inputExt" transform="translate(165,415)" s:width="30" s:height="20" id="cell_dcr_write_en">
    <text x="15" y="-4" class="nodelabel cell_dcr_write_en" s:attribute="ref">dcr_write_en</text>
    <s:alias val="$_inputExt_"/>
    <path d="M0,0 L0,20 L15,20 L30,10 L15,0 Z" class="cell_dcr_write_en"/>
    <g s:x="28" s:y="10" s:pid="Y"/>
  </g>
  <g s:type="inputExt" transform="translate(12,354)" s:width="30" s:height="20" id="cell_dcr_addr">
    <text x="15" y="-4" class="nodelabel cell_dcr_addr" s:attribute="ref">dcr_addr</text>
    <s:alias val="$_inputExt_"/>
    <path d="M0,0 L0,20 L15,20 L30,10 L15,0 Z" class="cell_dcr_addr"/>
    <g s:x="28" s:y="10" s:pid="Y"/>
  </g>
  <g s:type="inputExt" transform="translate(312,191)" s:width="30" s:height="20" id="cell_dcr_data">
    <text x="15" y="-4" class="nodelabel cell_dcr_data" s:attribute="ref">dcr_data</text>
    <s:alias val="$_inputExt_"/>
    <path d="M0,0 L0,20 L15,20 L30,10 L15,0 Z" class="cell_dcr_data"/>
    <g s:x="28" s:y="10" s:pid="Y"/>
  </g>
  <g s:type="outputExt" transform="translate(539,235.5)" s:width="30" s:height="20" id="cell_num_blocks">
    <text x="15" y="-4" class="nodelabel cell_num_blocks" s:attribute="ref">num_blocks</text>
    <s:alias val="$_outputExt_"/>
    <path d="M30,0 L30,20 L15,20 L0,10 L15,0 Z" class="cell_num_blocks"/>
    <g s:x="0" s:y="10" s:pid="A"/>
  </g>
  <g s:type="outputExt" transform="translate(539,32.5)" s:width="30" s:height="20" id="cell_blockDim">
    <text x="15" y="-4" class="nodelabel cell_blockDim" s:attribute="ref">blockDim</text>
    <s:alias val="$_outputExt_"/>
    <path d="M30,0 L30,20 L15,20 L0,10 L15,0 Z" class="cell_blockDim"/>
    <g s:x="0" s:y="10" s:pid="A"/>
  </g>
  <g s:type="outputExt" transform="translate(539,446.5)" s:width="30" s:height="20" id="cell_start">
    <text x="15" y="-4" class="nodelabel cell_start" s:attribute="ref">start</text>
    <s:alias val="$_outputExt_"/>
    <path d="M30,0 L30,20 L15,20 L0,10 L15,0 Z" class="cell_start"/>
    <g s:x="0" s:y="10" s:pid="A"/>
  </g>
  <g s:type="constant" transform="translate(95,486.5)" s:width="30" s:height="20" id="cell_0">
    <text x="15" y="-4" class="nodelabel cell_0" s:attribute="ref">0</text>
    <s:alias val="$_constant_"/>
    <rect width="30" height="20" class="cell_0"/>
    <g s:x="30" s:y="10" s:pid="Y"/>
  </g>
  <g s:type="constant" transform="translate(95,421.5)" s:width="30" s:height="20" id="cell_1">
    <text x="15" y="-4" class="nodelabel cell_1" s:attribute="ref">1</text>
    <s:alias val="$_constant_"/>
    <rect width="30" height="20" class="cell_1"/>
    <g s:x="30" s:y="10" s:pid="Y"/>
  </g>
  <g s:type="constant" transform="translate(12,559)" s:width="30" s:height="20" id="cell_10">
    <text x="15" y="-4" class="nodelabel cell_10" s:attribute="ref">10</text>
    <s:alias val="$_constant_"/>
    <rect width="30" height="20" class="cell_10"/>
    <g s:x="30" s:y="10" s:pid="Y"/>
  </g>
  <line x1="193" x2="247" y1="221.5" y2="221.5" class="net_3"/>
  <line x1="247" x2="247" y1="221.5" y2="266.5" class="net_3"/>
  <circle cx="247" cy="221.5" r="2" style="fill:#000" class="net_3"/>
  <circle cx="247" cy="266.5" r="2" style="fill:#000" class="net_3"/>
  <line x1="247" x2="312" y1="266.5" y2="266.5" class="net_3"/>
  <line x1="193" x2="247" y1="221.5" y2="221.5" class="net_3"/>
  <line x1="247" x2="247" y1="221.5" y2="42.5" class="net_3"/>
  <line x1="247" x2="312" y1="42.5" y2="42.5" class="net_3"/>
  <line x1="193" x2="247" y1="221.5" y2="221.5" class="net_3"/>
  <line x1="247" x2="247" y1="221.5" y2="454.5" class="net_3"/>
  <line x1="247" x2="388" y1="454.5" y2="454.5" class="net_3"/>
  <line x1="388" x2="388" y1="454.5" y2="456.5" class="net_3"/>
  <line x1="388" x2="438" y1="456.5" y2="456.5" class="net_3"/>
  <line x1="193" x2="312" y1="286.5" y2="286.5" class="net_2"/>
  <line x1="193" x2="257" y1="286.5" y2="286.5" class="net_2"/>
  <line x1="257" x2="257" y1="286.5" y2="62.5" class="net_2"/>
  <circle cx="257" cy="286.5" r="2" style="fill:#000" class="net_2"/>
  <line x1="257" x2="312" y1="62.5" y2="62.5" class="net_2"/>
  <line x1="193" x2="257" y1="286.5" y2="286.5" class="net_2"/>
  <line x1="257" x2="257" y1="286.5" y2="465.5" class="net_2"/>
  <line x1="257" x2="388" y1="465.5" y2="465.5" class="net_2"/>
  <line x1="388" x2="388" y1="465.5" y2="476.5" class="net_2"/>
  <line x1="388" x2="438" y1="476.5" y2="476.5" class="net_2"/>
  <line x1="559" x2="609" y1="384" y2="384" class="net_104,105,106,107,108,109,110,111,112,113,114,115,116,117,118,119,120,121,122,123,124,125,126,127,128,129,130,131,132,133,134,135"/>
  <line x1="609" x2="609" y1="384" y2="414" class="net_104,105,106,107,108,109,110,111,112,113,114,115,116,117,118,119,120,121,122,123,124,125,126,127,128,129,130,131,132,133,134,135"/>
  <line x1="609" x2="277" y1="414" y2="414" class="net_104,105,106,107,108,109,110,111,112,113,114,115,116,117,118,119,120,121,122,123,124,125,126,127,128,129,130,131,132,133,134,135"/>
  <line x1="277" x2="277" y1="414" y2="306.5" class="net_104,105,106,107,108,109,110,111,112,113,114,115,116,117,118,119,120,121,122,123,124,125,126,127,128,129,130,131,132,133,134,135"/>
  <line x1="277" x2="312" y1="306.5" y2="306.5" class="net_104,105,106,107,108,109,110,111,112,113,114,115,116,117,118,119,120,121,122,123,124,125,126,127,128,129,130,131,132,133,134,135"/>
  <line x1="559" x2="609" y1="107.5" y2="107.5" class="net_136,137,138,139,140,141,142,143,144,145,146,147,148,149,150,151,152,153,154,155,156,157,158,159,160,161,162,163,164,165,166,167"/>
  <line x1="609" x2="609" y1="107.5" y2="12" class="net_136,137,138,139,140,141,142,143,144,145,146,147,148,149,150,151,152,153,154,155,156,157,158,159,160,161,162,163,164,165,166,167"/>
  <line x1="609" x2="277" y1="12" y2="12" class="net_136,137,138,139,140,141,142,143,144,145,146,147,148,149,150,151,152,153,154,155,156,157,158,159,160,161,162,163,164,165,166,167"/>
  <line x1="277" x2="277" y1="12" y2="82.5" class="net_136,137,138,139,140,141,142,143,144,145,146,147,148,149,150,151,152,153,154,155,156,157,158,159,160,161,162,163,164,165,166,167"/>
  <line x1="277" x2="312" y1="82.5" y2="82.5" class="net_136,137,138,139,140,141,142,143,144,145,146,147,148,149,150,151,152,153,154,155,156,157,158,159,160,161,162,163,164,165,166,167"/>
  <line x1="339" x2="438" y1="496.5" y2="496.5" class="net_168"/>
  <line x1="343" x2="445" y1="266.5" y2="266.5" class="net_39,40,41,42,43,44,45,46,47,48,49,50,51,52,53,54,55,56,57,58,59,60,61,62,63,64,65,66,67,68,69,70"/>
  <line x1="343" x2="388" y1="266.5" y2="266.5" class="net_39,40,41,42,43,44,45,46,47,48,49,50,51,52,53,54,55,56,57,58,59,60,61,62,63,64,65,66,67,68,69,70"/>
  <line x1="388" x2="388" y1="266.5" y2="374" class="net_39,40,41,42,43,44,45,46,47,48,49,50,51,52,53,54,55,56,57,58,59,60,61,62,63,64,65,66,67,68,69,70"/>
  <circle cx="388" cy="266.5" r="2" style="fill:#000" class="net_39,40,41,42,43,44,45,46,47,48,49,50,51,52,53,54,55,56,57,58,59,60,61,62,63,64,65,66,67,68,69,70"/>
  <line x1="388" x2="539" y1="374" y2="374" class="net_39,40,41,42,43,44,45,46,47,48,49,50,51,52,53,54,55,56,57,58,59,60,61,62,63,64,65,66,67,68,69,70"/>
  <line x1="343" x2="388" y1="266.5" y2="266.5" class="net_39,40,41,42,43,44,45,46,47,48,49,50,51,52,53,54,55,56,57,58,59,60,61,62,63,64,65,66,67,68,69,70"/>
  <line x1="388" x2="388" y1="266.5" y2="245.5" class="net_39,40,41,42,43,44,45,46,47,48,49,50,51,52,53,54,55,56,57,58,59,60,61,62,63,64,65,66,67,68,69,70"/>
  <line x1="388" x2="539" y1="245.5" y2="245.5" class="net_39,40,41,42,43,44,45,46,47,48,49,50,51,52,53,54,55,56,57,58,59,60,61,62,63,64,65,66,67,68,69,70"/>
  <line x1="340" x2="398" y1="201" y2="201" class="net_7,8,9,10,11,12,13,14,15,16,17,18,19,20,21,22,23,24,25,26,27,28,29,30,31,32,33,34,35,36,37,38"/>
  <line x1="398" x2="398" y1="201" y2="286.5" class="net_7,8,9,10,11,12,13,14,15,16,17,18,19,20,21,22,23,24,25,26,27,28,29,30,31,32,33,34,35,36,37,38"/>
  <circle cx="398" cy="201" r="2" style="fill:#000" class="net_7,8,9,10,11,12,13,14,15,16,17,18,19,20,21,22,23,24,25,26,27,28,29,30,31,32,33,34,35,36,37,38"/>
  <line x1="398" x2="445" y1="286.5" y2="286.5" class="net_7,8,9,10,11,12,13,14,15,16,17,18,19,20,21,22,23,24,25,26,27,28,29,30,31,32,33,34,35,36,37,38"/>
  <line x1="340" x2="398" y1="201" y2="201" class="net_7,8,9,10,11,12,13,14,15,16,17,18,19,20,21,22,23,24,25,26,27,28,29,30,31,32,33,34,35,36,37,38"/>
  <line x1="398" x2="398" y1="201" y2="127.5" class="net_7,8,9,10,11,12,13,14,15,16,17,18,19,20,21,22,23,24,25,26,27,28,29,30,31,32,33,34,35,36,37,38"/>
  <line x1="398" x2="445" y1="127.5" y2="127.5" class="net_7,8,9,10,11,12,13,14,15,16,17,18,19,20,21,22,23,24,25,26,27,28,29,30,31,32,33,34,35,36,37,38"/>
  <line x1="342.5" x2="455" y1="364" y2="364" class="net_169"/>
  <line x1="455" x2="455" y1="364" y2="291.5" class="net_169"/>
  <line x1="40" x2="317.5" y1="364" y2="364" class="net_5,6"/>
  <line x1="40" x2="70" y1="364" y2="364" class="net_5,6"/>
  <line x1="70" x2="70" y1="364" y2="554" class="net_5,6"/>
  <circle cx="70" cy="364" r="2" style="fill:#000" class="net_5,6"/>
  <line x1="70" x2="99.66666666666667" y1="554" y2="554" class="net_5,6"/>
  <line x1="40" x2="135" y1="364" y2="364" class="net_5,6"/>
  <line x1="135" x2="135" y1="364" y2="140" class="net_5,6"/>
  <circle cx="135" cy="364" r="2" style="fill:#000" class="net_5,6"/>
  <line x1="135" x2="320.3333333333333" y1="140" y2="140" class="net_5,6"/>
  <line x1="465" x2="514" y1="276.5" y2="276.5" class="net_170,171,172,173,174,175,176,177,178,179,180,181,182,183,184,185,186,187,188,189,190,191,192,193,194,195,196,197,198,199,200,201"/>
  <line x1="514" x2="514" y1="276.5" y2="394" class="net_170,171,172,173,174,175,176,177,178,179,180,181,182,183,184,185,186,187,188,189,190,191,192,193,194,195,196,197,198,199,200,201"/>
  <line x1="514" x2="539" y1="394" y2="394" class="net_170,171,172,173,174,175,176,177,178,179,180,181,182,183,184,185,186,187,188,189,190,191,192,193,194,195,196,197,198,199,200,201"/>
  <line x1="193" x2="549" y1="425" y2="425" class="net_4"/>
  <line x1="549" x2="549" y1="425" y2="399" class="net_4"/>
  <line x1="193" x2="267" y1="425" y2="425" class="net_4"/>
  <line x1="267" x2="267" y1="425" y2="526.5" class="net_4"/>
  <line x1="267" x2="329" y1="526.5" y2="526.5" class="net_4"/>
  <circle cx="267" cy="425" r="2" style="fill:#000" class="net_4"/>
  <line x1="329" x2="329" y1="526.5" y2="511.5" class="net_4"/>
  <line x1="193" x2="267" y1="425" y2="425" class="net_4"/>
  <line x1="267" x2="267" y1="425" y2="170" class="net_4"/>
  <line x1="267" x2="549" y1="170" y2="170" class="net_4"/>
  <line x1="549" x2="549" y1="170" y2="122.5" class="net_4"/>
  <line x1="125" x2="182.33333333333334" y1="496.5" y2="496.5" class="net_237"/>
  <line x1="125" x2="155" y1="496.5" y2="496.5" class="net_237"/>
  <line x1="155" x2="155" y1="496.5" y2="475.5" class="net_237"/>
  <line x1="155" x2="277" y1="475.5" y2="475.5" class="net_237"/>
  <line x1="277" x2="277" y1="475.5" y2="486.5" class="net_237"/>
  <circle cx="155" cy="496.5" r="2" style="fill:#000" class="net_237"/>
  <line x1="277" x2="319" y1="486.5" y2="486.5" class="net_237"/>
  <line x1="125" x2="145" y1="431.5" y2="431.5" class="net_238"/>
  <line x1="145" x2="145" y1="431.5" y2="516.5" class="net_238"/>
  <circle cx="145" cy="431.5" r="2" style="fill:#000" class="net_238"/>
  <line x1="145" x2="182.33333333333334" y1="516.5" y2="516.5" class="net_238"/>
  <line x1="125" x2="145" y1="431.5" y2="431.5" class="net_238"/>
  <line x1="145" x2="145" y1="431.5" y2="155" class="net_238"/>
  <line x1="145" x2="320.3333333333333" y1="155" y2="155" class="net_238"/>
  <line x1="121.66666666666667" x2="192.33333333333334" y1="561.5" y2="561.5" class="net_202"/>
  <line x1="192.33333333333334" x2="192.33333333333334" y1="561.5" y2="521.5" class="net_202"/>
  <line x1="42" x2="99.66666666666667" y1="569" y2="569" class="net_239,240"/>
  <line x1="202.33333333333334" x2="319" y1="506.5" y2="506.5" class="net_203"/>
  <line x1="343" x2="388" y1="42.5" y2="42.5" class="net_71,72,73,74,75,76,77,78,79,80,81,82,83,84,85,86,87,88,89,90,91,92,93,94,95,96,97,98,99,100,101,102"/>
  <line x1="388" x2="388" y1="42.5" y2="107.5" class="net_71,72,73,74,75,76,77,78,79,80,81,82,83,84,85,86,87,88,89,90,91,92,93,94,95,96,97,98,99,100,101,102"/>
  <circle cx="388" cy="42.5" r="2" style="fill:#000" class="net_71,72,73,74,75,76,77,78,79,80,81,82,83,84,85,86,87,88,89,90,91,92,93,94,95,96,97,98,99,100,101,102"/>
  <line x1="388" x2="445" y1="107.5" y2="107.5" class="net_71,72,73,74,75,76,77,78,79,80,81,82,83,84,85,86,87,88,89,90,91,92,93,94,95,96,97,98,99,100,101,102"/>
  <line x1="343" x2="514" y1="42.5" y2="42.5" class="net_71,72,73,74,75,76,77,78,79,80,81,82,83,84,85,86,87,88,89,90,91,92,93,94,95,96,97,98,99,100,101,102"/>
  <line x1="514" x2="514" y1="42.5" y2="97.5" class="net_71,72,73,74,75,76,77,78,79,80,81,82,83,84,85,86,87,88,89,90,91,92,93,94,95,96,97,98,99,100,101,102"/>
  <circle cx="514" cy="42.5" r="2" style="fill:#000" class="net_71,72,73,74,75,76,77,78,79,80,81,82,83,84,85,86,87,88,89,90,91,92,93,94,95,96,97,98,99,100,101,102"/>
  <line x1="514" x2="539" y1="97.5" y2="97.5" class="net_71,72,73,74,75,76,77,78,79,80,81,82,83,84,85,86,87,88,89,90,91,92,93,94,95,96,97,98,99,100,101,102"/>
  <line x1="343" x2="539" y1="42.5" y2="42.5" class="net_71,72,73,74,75,76,77,78,79,80,81,82,83,84,85,86,87,88,89,90,91,92,93,94,95,96,97,98,99,100,101,102"/>
  <line x1="342.3333333333333" x2="455" y1="147.5" y2="147.5" class="net_204"/>
  <line x1="455" x2="455" y1="147.5" y2="132.5" class="net_204"/>
  <line x1="465" x2="539" y1="117.5" y2="117.5" class="net_205,206,207,208,209,210,211,212,213,214,215,216,217,218,219,220,221,222,223,224,225,226,227,228,229,230,231,232,233,234,235,236"/>
  <line x1="469" x2="539" y1="456.5" y2="456.5" class="net_103"/>
</svg>
