<svg xmlns="http://www.w3.org/2000/svg" xmlns:xlink="http://www.w3.org/1999/xlink" xmlns:s="https://github.com/nturley/netlistsvg" width="648" height="998">
  <style>svg {
    stroke:#000;
    fill:none;
  }
  text {
    fill:#000;
    stroke:none;
    font-size:10px;
    font-weight: bold;
    font-family: "Courier New", monospace;
  }
  .nodelabel {
    text-anchor: middle;
  }
  .inputPortLabel {
    text-anchor: end;
  }
  .splitjoinBody {
    fill:#000;
  }</style>
  <g s:type="generic" transform="translate(308,84)" s:width="30" s:height="40" id="cell_$procdff$28">
    <text x="15" y="-4" class="nodelabel cell_$procdff$28" s:attribute="ref">$adff</text>
    <rect width="30" height="60" s:generic="body" class="cell_$procdff$28"/>
    <g transform="translate(0,10)" s:x="0" s:y="10" s:pid="in0" id="port_$procdff$28~ARST">
      <text x="-3" y="-4" class="inputPortLabel cell_$procdff$28">ARST</text>
    </g>
    <g transform="translate(0,30)" s:x="0" s:y="10" s:pid="in0" id="port_$procdff$28~CLK">
      <text x="-3" y="-4" class="inputPortLabel cell_$procdff$28">CLK</text>
    </g>
    <g transform="translate(0,50)" s:x="0" s:y="10" s:pid="in0" id="port_$procdff$28~D">
      <text x="-3" y="-4" class="inputPortLabel cell_$procdff$28">D</text>
    </g>
    <g transform="translate(30,10)" s:x="30" s:y="10" s:pid="out0" id="port_$procdff$28~Q">
      <text x="5" y="-4" style="fill:#000; stroke:none" class="cell_$procdff$28">Q</text>
    </g>
  </g>
  <g s:type="generic" transform="translate(439,500.5)" s:width="30" s:height="40" id="cell_$procdff$29">
    <text x="15" y="-4" class="nodelabel cell_$procdff$29" s:attribute="ref">$adff</text>
    <rect width="30" height="60" s:generic="body" class="cell_$procdff$29"/>
    <g transform="translate(0,10)" s:x="0" s:y="10" s:pid="in0" id="port_$procdff$29~ARST">
      <text x="-3" y="-4" class="inputPortLabel cell_$procdff$29">ARST</text>
    </g>
    <g transform="translate(0,30)" s:x="0" s:y="10" s:pid="in0" id="port_$procdff$29~CLK">
      <text x="-3" y="-4" class="inputPortLabel cell_$procdff$29">CLK</text>
    </g>
    <g transform="translate(0,50)" s:x="0" s:y="10" s:pid="in0" id="port_$procdff$29~D">
      <text x="-3" y="-4" class="inputPortLabel cell_$procdff$29">D</text>
    </g>
    <g transform="translate(30,10)" s:x="30" s:y="10" s:pid="out0" id="port_$procdff$29~Q">
      <text x="5" y="-4" style="fill:#000; stroke:none" class="cell_$procdff$29">Q</text>
    </g>
  </g>
  <g s:type="generic" transform="translate(439,725.5)" s:width="30" s:height="40" id="cell_$procdff$30">
    <text x="15" y="-4" class="nodelabel cell_$procdff$30" s:attribute="ref">$adff</text>
    <rect width="30" height="60" s:generic="body" class="cell_$procdff$30"/>
    <g transform="translate(0,10)" s:x="0" s:y="10" s:pid="in0" id="port_$procdff$30~ARST">
      <text x="-3" y="-4" class="inputPortLabel cell_$procdff$30">ARST</text>
    </g>
    <g transform="translate(0,30)" s:x="0" s:y="10" s:pid="in0" id="port_$procdff$30~CLK">
      <text x="-3" y="-4" class="inputPortLabel cell_$procdff$30">CLK</text>
    </g>
    <g transform="translate(0,50)" s:x="0" s:y="10" s:pid="in0" id="port_$procdff$30~D">
      <text x="-3" y="-4" class="inputPortLabel cell_$procdff$30">D</text>
    </g>
    <g transform="translate(30,10)" s:x="30" s:y="10" s:pid="out0" id="port_$procdff$30~Q">
      <text x="5" y="-4" style="fill:#000; stroke:none" class="cell_$procdff$30">Q</text>
    </g>
  </g>
  <g s:type="generic" transform="translate(308,242)" s:width="30" s:height="40" id="cell_$procdff$31">
    <text x="15" y="-4" class="nodelabel cell_$procdff$31" s:attribute="ref">$adff</text>
    <rect width="30" height="60" s:generic="body" class="cell_$procdff$31"/>
    <g transform="translate(0,10)" s:x="0" s:y="10" s:pid="in0" id="port_$procdff$31~ARST">
      <text x="-3" y="-4" class="inputPortLabel cell_$procdff$31">ARST</text>
    </g>
    <g transform="translate(0,30)" s:x="0" s:y="10" s:pid="in0" id="port_$procdff$31~CLK">
      <text x="-3" y="-4" class="inputPortLabel cell_$procdff$31">CLK</text>
    </g>
    <g transform="translate(0,50)" s:x="0" s:y="10" s:pid="in0" id="port_$procdff$31~D">
      <text x="-3" y="-4" class="inputPortLabel cell_$procdff$31">D</text>
    </g>
    <g transform="translate(30,10)" s:x="30" s:y="10" s:pid="out0" id="port_$procdff$31~Q">
      <text x="5" y="-4" style="fill:#000; stroke:none" class="cell_$procdff$31">Q</text>
    </g>
  </g>
  <g s:type="generic" transform="translate(177,683)" s:width="30" s:height="40" id="cell_$procdff$32">
    <text x="15" y="-4" class="nodelabel cell_$procdff$32" s:attribute="ref">$adff</text>
    <rect width="30" height="60" s:generic="body" class="cell_$procdff$32"/>
    <g transform="translate(0,10)" s:x="0" s:y="10" s:pid="in0" id="port_$procdff$32~ARST">
      <text x="-3" y="-4" class="inputPortLabel cell_$procdff$32">ARST</text>
    </g>
    <g transform="translate(0,30)" s:x="0" s:y="10" s:pid="in0" id="port_$procdff$32~CLK">
      <text x="-3" y="-4" class="inputPortLabel cell_$procdff$32">CLK</text>
    </g>
    <g transform="translate(0,50)" s:x="0" s:y="10" s:pid="in0" id="port_$procdff$32~D">
      <text x="-3" y="-4" class="inputPortLabel cell_$procdff$32">D</text>
    </g>
    <g transform="translate(30,10)" s:x="30" s:y="10" s:pid="out0" id="port_$procdff$32~Q">
      <text x="5" y="-4" style="fill:#000; stroke:none" class="cell_$procdff$32">Q</text>
    </g>
  </g>
  <g s:type="mux" transform="translate(315,767)" s:width="20" s:height="40" id="cell_$procmux$10">
    <s:alias val="$pmux"/>
    <s:alias val="$mux"/>
    <s:alias val="$_MUX_"/>
    <path d="M0,0 L20,10 L20,30 L0,40 Z" class="cell_$procmux$10"/>
    <g s:x="0" s:y="10" s:pid="A"/>
    <g s:x="0" s:y="30" s:pid="B"/>
    <g s:x="10" s:y="35" s:pid="S"/>
    <g s:x="20" s:y="20" s:pid="Y"/>
  </g>
  <g s:type="mux" transform="translate(315,858)" s:width="20" s:height="40" id="cell_$procmux$12">
    <s:alias val="$pmux"/>
    <s:alias val="$mux"/>
    <s:alias val="$_MUX_"/>
    <path d="M0,0 L20,10 L20,30 L0,40 Z" class="cell_$procmux$12"/>
    <g s:x="0" s:y="10" s:pid="A"/>
    <g s:x="0" s:y="30" s:pid="B"/>
    <g s:x="10" s:y="35" s:pid="S"/>
    <g s:x="20" s:y="20" s:pid="Y"/>
  </g>
  <g s:type="mux" transform="translate(540,817)" s:width="20" s:height="40" id="cell_$procmux$14">
    <s:alias val="$pmux"/>
    <s:alias val="$mux"/>
    <s:alias val="$_MUX_"/>
    <path d="M0,0 L20,10 L20,30 L0,40 Z" class="cell_$procmux$14"/>
    <g s:x="0" s:y="10" s:pid="A"/>
    <g s:x="0" s:y="30" s:pid="B"/>
    <g s:x="10" s:y="35" s:pid="S"/>
    <g s:x="20" s:y="20" s:pid="Y"/>
  </g>
  <g s:type="mux" transform="translate(184,808)" s:width="20" s:height="40" id="cell_$procmux$16">
    <s:alias val="$pmux"/>
    <s:alias val="$mux"/>
    <s:alias val="$_MUX_"/>
    <path d="M0,0 L20,10 L20,30 L0,40 Z" class="cell_$procmux$16"/>
    <g s:x="0" s:y="10" s:pid="A"/>
    <g s:x="0" s:y="30" s:pid="B"/>
    <g s:x="10" s:y="35" s:pid="S"/>
    <g s:x="20" s:y="20" s:pid="Y"/>
  </g>
  <g s:type="not" transform="translate(313.5,966)" s:width="30" s:height="20" id="cell_$procmux$18_CMP0">
    <s:alias val="$_NOT_"/>
    <s:alias val="$not"/>
    <s:alias val="$logic_not"/>
    <path d="M0,0 L0,20 L20,10 Z" class="cell_$procmux$18_CMP0"/>
    <circle cx="23" cy="10" r="3" class="cell_$procmux$18_CMP0"/>
    <g s:x="0" s:y="10" s:pid="A"/>
    <g s:x="25" s:y="10" s:pid="Y"/>
  </g>
  <g s:type="mux" transform="translate(184,613)" s:width="20" s:height="40" id="cell_$procmux$2">
    <s:alias val="$pmux"/>
    <s:alias val="$mux"/>
    <s:alias val="$_MUX_"/>
    <path d="M0,0 L20,10 L20,30 L0,40 Z" class="cell_$procmux$2"/>
    <g s:x="0" s:y="10" s:pid="A"/>
    <g s:x="0" s:y="30" s:pid="B"/>
    <g s:x="10" s:y="35" s:pid="S"/>
    <g s:x="20" s:y="20" s:pid="Y"/>
  </g>
  <g s:type="mux" transform="translate(446,419.5)" s:width="20" s:height="40" id="cell_$procmux$20">
    <s:alias val="$pmux"/>
    <s:alias val="$mux"/>
    <s:alias val="$_MUX_"/>
    <path d="M0,0 L20,10 L20,30 L0,40 Z" class="cell_$procmux$20"/>
    <g s:x="0" s:y="10" s:pid="A"/>
    <g s:x="0" s:y="30" s:pid="B"/>
    <g s:x="10" s:y="35" s:pid="S"/>
    <g s:x="20" s:y="20" s:pid="Y"/>
  </g>
  <g s:type="mux" transform="translate(540,378.5)" s:width="20" s:height="40" id="cell_$procmux$22">
    <s:alias val="$pmux"/>
    <s:alias val="$mux"/>
    <s:alias val="$_MUX_"/>
    <path d="M0,0 L20,10 L20,30 L0,40 Z" class="cell_$procmux$22"/>
    <g s:x="0" s:y="10" s:pid="A"/>
    <g s:x="0" s:y="30" s:pid="B"/>
    <g s:x="10" s:y="35" s:pid="S"/>
    <g s:x="20" s:y="20" s:pid="Y"/>
  </g>
  <g s:type="mux" transform="translate(446,318.5)" s:width="20" s:height="40" id="cell_$procmux$24">
    <s:alias val="$pmux"/>
    <s:alias val="$mux"/>
    <s:alias val="$_MUX_"/>
    <path d="M0,0 L20,10 L20,30 L0,40 Z" class="cell_$procmux$24"/>
    <g s:x="0" s:y="10" s:pid="A"/>
    <g s:x="0" s:y="30" s:pid="B"/>
    <g s:x="10" s:y="35" s:pid="S"/>
    <g s:x="20" s:y="20" s:pid="Y"/>
  </g>
  <g s:type="mux" transform="translate(540,297.5)" s:width="20" s:height="40" id="cell_$procmux$26">
    <s:alias val="$pmux"/>
    <s:alias val="$mux"/>
    <s:alias val="$_MUX_"/>
    <path d="M0,0 L20,10 L20,30 L0,40 Z" class="cell_$procmux$26"/>
    <g s:x="0" s:y="10" s:pid="A"/>
    <g s:x="0" s:y="30" s:pid="B"/>
    <g s:x="10" s:y="35" s:pid="S"/>
    <g s:x="20" s:y="20" s:pid="Y"/>
  </g>
  <g s:type="mux" transform="translate(315,542)" s:width="20" s:height="40" id="cell_$procmux$4">
    <s:alias val="$pmux"/>
    <s:alias val="$mux"/>
    <s:alias val="$_MUX_"/>
    <path d="M0,0 L20,10 L20,30 L0,40 Z" class="cell_$procmux$4"/>
    <g s:x="0" s:y="10" s:pid="A"/>
    <g s:x="0" s:y="30" s:pid="B"/>
    <g s:x="10" s:y="35" s:pid="S"/>
    <g s:x="20" s:y="20" s:pid="Y"/>
  </g>
  <g s:type="inputExt" transform="translate(12,149.5)" s:width="30" s:height="20" id="cell_clk">
    <text x="15" y="-4" class="nodelabel cell_clk" s:attribute="ref">clk</text>
    <s:alias val="$_inputExt_"/>
    <path d="M0,0 L0,20 L15,20 L30,10 L15,0 Z" class="cell_clk"/>
    <g s:x="28" s:y="10" s:pid="Y"/>
  </g>
  <g s:type="inputExt" transform="translate(12,84.5)" s:width="30" s:height="20" id="cell_rst">
    <text x="15" y="-4" class="nodelabel cell_rst" s:attribute="ref">rst</text>
    <s:alias val="$_inputExt_"/>
    <path d="M0,0 L0,20 L15,20 L30,10 L15,0 Z" class="cell_rst"/>
    <g s:x="28" s:y="10" s:pid="Y"/>
  </g>
  <g s:type="inputExt" transform="translate(12,214.5)" s:width="30" s:height="20" id="cell_core_en">
    <text x="15" y="-4" class="nodelabel cell_core_en" s:attribute="ref">core_en</text>
    <s:alias val="$_inputExt_"/>
    <path d="M0,0 L0,20 L15,20 L30,10 L15,0 Z" class="cell_core_en"/>
    <g s:x="28" s:y="10" s:pid="Y"/>
  </g>
  <g s:type="inputExt" transform="translate(308,439.5)" s:width="30" s:height="20" id="cell_pc_value">
    <text x="15" y="-4" class="nodelabel cell_pc_value" s:attribute="ref">pc_value</text>
    <s:alias val="$_inputExt_"/>
    <path d="M0,0 L0,20 L15,20 L30,10 L15,0 Z" class="cell_pc_value"/>
    <g s:x="28" s:y="10" s:pid="Y"/>
  </g>
  <g s:type="outputExt" transform="translate(540,22)" s:width="30" s:height="20" id="cell_instruction">
    <text x="15" y="-4" class="nodelabel cell_instruction" s:attribute="ref">instruction</text>
    <s:alias val="$_outputExt_"/>
    <path d="M30,0 L30,20 L15,20 L0,10 L15,0 Z" class="cell_instruction"/>
    <g s:x="0" s:y="10" s:pid="A"/>
  </g>
  <g s:type="outputExt" transform="translate(540,501)" s:width="30" s:height="20" id="cell_done">
    <text x="15" y="-4" class="nodelabel cell_done" s:attribute="ref">done</text>
    <s:alias val="$_outputExt_"/>
    <path d="M30,0 L30,20 L15,20 L0,10 L15,0 Z" class="cell_done"/>
    <g s:x="0" s:y="10" s:pid="A"/>
  </g>
  <g s:type="outputExt" transform="translate(540,726)" s:width="30" s:height="20" id="cell_req_valid">
    <text x="15" y="-4" class="nodelabel cell_req_valid" s:attribute="ref">req_valid</text>
    <s:alias val="$_outputExt_"/>
    <path d="M30,0 L30,20 L15,20 L0,10 L15,0 Z" class="cell_req_valid"/>
    <g s:x="0" s:y="10" s:pid="A"/>
  </g>
  <g s:type="outputExt" transform="translate(540,242.5)" s:width="30" s:height="20" id="cell_req_addr">
    <text x="15" y="-4" class="nodelabel cell_req_addr" s:attribute="ref">req_addr</text>
    <s:alias val="$_outputExt_"/>
    <path d="M30,0 L30,20 L15,20 L0,10 L15,0 Z" class="cell_req_addr"/>
    <g s:x="0" s:y="10" s:pid="A"/>
  </g>
  <g s:type="inputExt" transform="translate(12,369.5)" s:width="30" s:height="20" id="cell_resp_valid">
    <text x="15" y="-4" class="nodelabel cell_resp_valid" s:attribute="ref">resp_valid</text>
    <s:alias val="$_inputExt_"/>
    <path d="M0,0 L0,20 L15,20 L30,10 L15,0 Z" class="cell_resp_valid"/>
    <g s:x="28" s:y="10" s:pid="Y"/>
  </g>
  <g s:type="inputExt" transform="translate(308,177)" s:width="30" s:height="20" id="cell_resp_data">
    <text x="15" y="-4" class="nodelabel cell_resp_data" s:attribute="ref">resp_data</text>
    <s:alias val="$_inputExt_"/>
    <path d="M0,0 L0,20 L15,20 L30,10 L15,0 Z" class="cell_resp_data"/>
    <g s:x="28" s:y="10" s:pid="Y"/>
  </g>
  <g s:type="constant" transform="translate(12,542)" s:width="30" s:height="20" id="cell_0">
    <text x="15" y="-4" class="nodelabel cell_0" s:attribute="ref">0</text>
    <s:alias val="$_constant_"/>
    <rect width="30" height="20" class="cell_0"/>
    <g s:x="30" s:y="10" s:pid="Y"/>
  </g>
  <g s:type="constant" transform="translate(12,633)" s:width="30" s:height="20" id="cell_1">
    <text x="15" y="-4" class="nodelabel cell_1" s:attribute="ref">1</text>
    <s:alias val="$_constant_"/>
    <rect width="30" height="20" class="cell_1"/>
    <g s:x="30" s:y="10" s:pid="Y"/>
  </g>
  <g s:type="join" transform="translate(451.3333333333333,867.5)" s:width="4" s:height="40" id="cell_$join$,205,204,">
    <rect width="5" height="40" class="splitjoinBody" s:generic="body"/>
    <s:alias val="$_join_"/>
    <g s:x="5" s:y="20" s:pid="out"/>
    <g transform="translate(0,10)" s:x="0" s:y="10" s:pid="in0">
      <text x="-3" y="-4" class="inputPortLabel">0</text>
    </g>
    <g transform="translate(0,30)" s:x="0" s:y="10" s:pid="in0">
      <text x="-3" y="-4" class="inputPortLabel">1</text>
    </g>
  </g>
  <g s:type="join" transform="translate(451.3333333333333,944.5)" s:width="4" s:height="40" id="cell_$join$,203,206,">
    <rect width="5" height="40" class="splitjoinBody" s:generic="body"/>
    <s:alias val="$_join_"/>
    <g s:x="5" s:y="20" s:pid="out"/>
    <g transform="translate(0,10)" s:x="0" s:y="10" s:pid="in0">
      <text x="-3" y="-4" class="inputPortLabel">0</text>
    </g>
    <g transform="translate(0,30)" s:x="0" s:y="10" s:pid="in0">
      <text x="-3" y="-4" class="inputPortLabel">1</text>
    </g>
  </g>
  <line x1="40" x2="308" y1="94.5" y2="94.5" class="net_3"/>
  <line x1="40" x2="142" y1="94.5" y2="94.5" class="net_3"/>
  <line x1="142" x2="142" y1="94.5" y2="491.5" class="net_3"/>
  <line x1="142" x2="384" y1="491.5" y2="491.5" class="net_3"/>
  <line x1="384" x2="384" y1="491.5" y2="511" class="net_3"/>
  <circle cx="142" cy="94.5" r="2" style="fill:#000" class="net_3"/>
  <circle cx="142" cy="491.5" r="2" style="fill:#000" class="net_3"/>
  <line x1="384" x2="439" y1="511" y2="511" class="net_3"/>
  <line x1="40" x2="142" y1="94.5" y2="94.5" class="net_3"/>
  <line x1="142" x2="142" y1="94.5" y2="602" class="net_3"/>
  <line x1="142" x2="384" y1="602" y2="602" class="net_3"/>
  <line x1="384" x2="384" y1="602" y2="736" class="net_3"/>
  <circle cx="142" cy="602" r="2" style="fill:#000" class="net_3"/>
  <line x1="384" x2="439" y1="736" y2="736" class="net_3"/>
  <line x1="40" x2="142" y1="94.5" y2="94.5" class="net_3"/>
  <line x1="142" x2="142" y1="94.5" y2="252.5" class="net_3"/>
  <circle cx="142" cy="252.5" r="2" style="fill:#000" class="net_3"/>
  <line x1="142" x2="308" y1="252.5" y2="252.5" class="net_3"/>
  <line x1="40" x2="142" y1="94.5" y2="94.5" class="net_3"/>
  <line x1="142" x2="142" y1="94.5" y2="693.5" class="net_3"/>
  <line x1="142" x2="177" y1="693.5" y2="693.5" class="net_3"/>
  <line x1="40" x2="253" y1="159.5" y2="159.5" class="net_2"/>
  <line x1="253" x2="253" y1="159.5" y2="114.5" class="net_2"/>
  <line x1="253" x2="308" y1="114.5" y2="114.5" class="net_2"/>
  <line x1="40" x2="132" y1="159.5" y2="159.5" class="net_2"/>
  <line x1="132" x2="132" y1="159.5" y2="531" class="net_2"/>
  <circle cx="132" cy="159.5" r="2" style="fill:#000" class="net_2"/>
  <circle cx="132" cy="531" r="2" style="fill:#000" class="net_2"/>
  <line x1="132" x2="439" y1="531" y2="531" class="net_2"/>
  <line x1="40" x2="132" y1="159.5" y2="159.5" class="net_2"/>
  <line x1="132" x2="132" y1="159.5" y2="756" class="net_2"/>
  <line x1="132" x2="439" y1="756" y2="756" class="net_2"/>
  <line x1="40" x2="132" y1="159.5" y2="159.5" class="net_2"/>
  <line x1="132" x2="132" y1="159.5" y2="263.5" class="net_2"/>
  <line x1="132" x2="273" y1="263.5" y2="263.5" class="net_2"/>
  <line x1="273" x2="273" y1="263.5" y2="272.5" class="net_2"/>
  <circle cx="132" cy="263.5" r="2" style="fill:#000" class="net_2"/>
  <line x1="273" x2="308" y1="272.5" y2="272.5" class="net_2"/>
  <line x1="40" x2="132" y1="159.5" y2="159.5" class="net_2"/>
  <line x1="132" x2="132" y1="159.5" y2="713.5" class="net_2"/>
  <circle cx="132" cy="713.5" r="2" style="fill:#000" class="net_2"/>
  <line x1="132" x2="177" y1="713.5" y2="713.5" class="net_2"/>
  <line x1="560" x2="636" y1="317.5" y2="317.5" class="net_136,137,138,139,140,141,142,143,144,145,146,147,148,149,150,151,152,153,154,155,156,157,158,159,160,161,162,163,164,165,166,167"/>
  <line x1="636" x2="636" y1="317.5" y2="52" class="net_136,137,138,139,140,141,142,143,144,145,146,147,148,149,150,151,152,153,154,155,156,157,158,159,160,161,162,163,164,165,166,167"/>
  <line x1="636" x2="273" y1="52" y2="52" class="net_136,137,138,139,140,141,142,143,144,145,146,147,148,149,150,151,152,153,154,155,156,157,158,159,160,161,162,163,164,165,166,167"/>
  <line x1="273" x2="273" y1="52" y2="134.5" class="net_136,137,138,139,140,141,142,143,144,145,146,147,148,149,150,151,152,153,154,155,156,157,158,159,160,161,162,163,164,165,166,167"/>
  <line x1="273" x2="308" y1="134.5" y2="134.5" class="net_136,137,138,139,140,141,142,143,144,145,146,147,148,149,150,151,152,153,154,155,156,157,158,159,160,161,162,163,164,165,166,167"/>
  <line x1="335" x2="384" y1="562" y2="562" class="net_168"/>
  <line x1="384" x2="384" y1="562" y2="551" class="net_168"/>
  <line x1="384" x2="439" y1="551" y2="551" class="net_168"/>
  <line x1="335" x2="384" y1="787" y2="787" class="net_169"/>
  <line x1="384" x2="384" y1="787" y2="776" class="net_169"/>
  <line x1="384" x2="439" y1="776" y2="776" class="net_169"/>
  <line x1="560" x2="616" y1="398.5" y2="398.5" class="net_170,171,172,173,174,175,176,177,178,179,180,181,182,183,184,185,186,187,188,189,190,191,192,193,194,195,196,197,198,199,200,201"/>
  <line x1="616" x2="616" y1="398.5" y2="157" class="net_170,171,172,173,174,175,176,177,178,179,180,181,182,183,184,185,186,187,188,189,190,191,192,193,194,195,196,197,198,199,200,201"/>
  <line x1="616" x2="263" y1="157" y2="157" class="net_170,171,172,173,174,175,176,177,178,179,180,181,182,183,184,185,186,187,188,189,190,191,192,193,194,195,196,197,198,199,200,201"/>
  <line x1="263" x2="263" y1="157" y2="292.5" class="net_170,171,172,173,174,175,176,177,178,179,180,181,182,183,184,185,186,187,188,189,190,191,192,193,194,195,196,197,198,199,200,201"/>
  <line x1="263" x2="308" y1="292.5" y2="292.5" class="net_170,171,172,173,174,175,176,177,178,179,180,181,182,183,184,185,186,187,188,189,190,191,192,193,194,195,196,197,198,199,200,201"/>
  <line x1="560" x2="626" y1="837" y2="837" class="net_202"/>
  <line x1="626" x2="626" y1="837" y2="63" class="net_202"/>
  <line x1="626" x2="112" y1="63" y2="63" class="net_202"/>
  <line x1="112" x2="112" y1="63" y2="733.5" class="net_202"/>
  <line x1="112" x2="177" y1="733.5" y2="733.5" class="net_202"/>
  <line x1="204" x2="253" y1="828" y2="828" class="net_204"/>
  <line x1="253" x2="253" y1="828" y2="777" class="net_204"/>
  <circle cx="253" cy="828" r="2" style="fill:#000" class="net_204"/>
  <line x1="253" x2="315" y1="777" y2="777" class="net_204"/>
  <line x1="204" x2="253" y1="828" y2="828" class="net_204"/>
  <line x1="253" x2="253" y1="828" y2="918" class="net_204"/>
  <line x1="253" x2="384" y1="918" y2="918" class="net_204"/>
  <line x1="384" x2="384" y1="918" y2="898" class="net_204"/>
  <line x1="384" x2="451.3333333333333" y1="898" y2="898" class="net_204"/>
  <line x1="42" x2="122" y1="552" y2="552" class="net_272"/>
  <line x1="122" x2="122" y1="552" y2="797" class="net_272"/>
  <circle cx="122" cy="552" r="2" style="fill:#000" class="net_272"/>
  <circle cx="122" cy="797" r="2" style="fill:#000" class="net_272"/>
  <line x1="122" x2="315" y1="797" y2="797" class="net_272"/>
  <line x1="42" x2="122" y1="552" y2="552" class="net_272"/>
  <line x1="122" x2="122" y1="552" y2="879" class="net_272"/>
  <line x1="122" x2="263" y1="879" y2="879" class="net_272"/>
  <line x1="263" x2="263" y1="879" y2="888" class="net_272"/>
  <line x1="263" x2="315" y1="888" y2="888" class="net_272"/>
  <line x1="42" x2="122" y1="552" y2="552" class="net_272"/>
  <line x1="122" x2="122" y1="552" y2="797" class="net_272"/>
  <line x1="122" x2="263" y1="797" y2="797" class="net_272"/>
  <line x1="263" x2="263" y1="797" y2="827" class="net_272"/>
  <circle cx="263" cy="797" r="2" style="fill:#000" class="net_272"/>
  <line x1="263" x2="540" y1="827" y2="827" class="net_272"/>
  <line x1="42" x2="122" y1="552" y2="552" class="net_272"/>
  <line x1="122" x2="122" y1="552" y2="818" class="net_272"/>
  <circle cx="122" cy="818" r="2" style="fill:#000" class="net_272"/>
  <line x1="122" x2="184" y1="818" y2="818" class="net_272"/>
  <line x1="42" x2="122" y1="552" y2="552" class="net_272"/>
  <line x1="122" x2="122" y1="552" y2="623" class="net_272"/>
  <circle cx="122" cy="623" r="2" style="fill:#000" class="net_272"/>
  <line x1="122" x2="184" y1="623" y2="623" class="net_272"/>
  <line x1="42" x2="315" y1="552" y2="552" class="net_272"/>
  <line x1="208" x2="273" y1="693.5" y2="693.5" class="net_203"/>
  <line x1="273" x2="273" y1="693.5" y2="817" class="net_203"/>
  <line x1="273" x2="325" y1="817" y2="817" class="net_203"/>
  <circle cx="273" cy="693.5" r="2" style="fill:#000" class="net_203"/>
  <circle cx="273" cy="817" r="2" style="fill:#000" class="net_203"/>
  <line x1="325" x2="325" y1="817" y2="802" class="net_203"/>
  <line x1="208" x2="273" y1="693.5" y2="693.5" class="net_203"/>
  <line x1="273" x2="273" y1="693.5" y2="976" class="net_203"/>
  <line x1="273" x2="313.5" y1="976" y2="976" class="net_203"/>
  <line x1="208" x2="273" y1="693.5" y2="693.5" class="net_203"/>
  <line x1="273" x2="273" y1="693.5" y2="469.5" class="net_203"/>
  <line x1="273" x2="550" y1="469.5" y2="469.5" class="net_203"/>
  <circle cx="273" cy="469.5" r="2" style="fill:#000" class="net_203"/>
  <line x1="550" x2="550" y1="469.5" y2="413.5" class="net_203"/>
  <line x1="208" x2="273" y1="693.5" y2="693.5" class="net_203"/>
  <line x1="273" x2="273" y1="693.5" y2="368.5" class="net_203"/>
  <line x1="273" x2="550" y1="368.5" y2="368.5" class="net_203"/>
  <line x1="550" x2="550" y1="368.5" y2="332.5" class="net_203"/>
  <line x1="208" x2="273" y1="693.5" y2="693.5" class="net_203"/>
  <line x1="273" x2="273" y1="693.5" y2="592" class="net_203"/>
  <line x1="273" x2="325" y1="592" y2="592" class="net_203"/>
  <circle cx="273" cy="592" r="2" style="fill:#000" class="net_203"/>
  <line x1="325" x2="325" y1="592" y2="577" class="net_203"/>
  <line x1="208" x2="273" y1="693.5" y2="693.5" class="net_203"/>
  <line x1="273" x2="273" y1="693.5" y2="955" class="net_203"/>
  <circle cx="273" cy="955" r="2" style="fill:#000" class="net_203"/>
  <line x1="273" x2="451.3333333333333" y1="955" y2="955" class="net_203"/>
  <line x1="42" x2="92" y1="643" y2="643" class="net_273"/>
  <line x1="92" x2="92" y1="643" y2="868" class="net_273"/>
  <circle cx="92" cy="643" r="2" style="fill:#000" class="net_273"/>
  <line x1="92" x2="315" y1="868" y2="868" class="net_273"/>
  <line x1="42" x2="92" y1="643" y2="643" class="net_273"/>
  <line x1="92" x2="92" y1="643" y2="838" class="net_273"/>
  <circle cx="92" cy="838" r="2" style="fill:#000" class="net_273"/>
  <line x1="92" x2="184" y1="838" y2="838" class="net_273"/>
  <line x1="42" x2="184" y1="643" y2="643" class="net_273"/>
  <line x1="40" x2="82" y1="379.5" y2="379.5" class="net_103"/>
  <line x1="82" x2="82" y1="379.5" y2="908" class="net_103"/>
  <line x1="82" x2="325" y1="908" y2="908" class="net_103"/>
  <circle cx="82" cy="379.5" r="2" style="fill:#000" class="net_103"/>
  <line x1="325" x2="325" y1="908" y2="893" class="net_103"/>
  <line x1="40" x2="82" y1="379.5" y2="379.5" class="net_103"/>
  <line x1="82" x2="82" y1="379.5" y2="663" class="net_103"/>
  <line x1="82" x2="194" y1="663" y2="663" class="net_103"/>
  <circle cx="82" cy="663" r="2" style="fill:#000" class="net_103"/>
  <line x1="194" x2="194" y1="663" y2="648" class="net_103"/>
  <line x1="40" x2="456" y1="379.5" y2="379.5" class="net_103"/>
  <line x1="456" x2="456" y1="379.5" y2="353.5" class="net_103"/>
  <line x1="457.3333333333333" x2="515" y1="888" y2="888" class="net_205,204"/>
  <line x1="515" x2="515" y1="888" y2="847" class="net_205,204"/>
  <line x1="515" x2="540" y1="847" y2="847" class="net_205,204"/>
  <line x1="457.3333333333333" x2="550" y1="965" y2="965" class="net_203,206"/>
  <line x1="550" x2="550" y1="965" y2="852" class="net_203,206"/>
  <line x1="40" x2="102" y1="224.5" y2="224.5" class="net_4"/>
  <line x1="102" x2="102" y1="224.5" y2="858" class="net_4"/>
  <line x1="102" x2="194" y1="858" y2="858" class="net_4"/>
  <line x1="194" x2="194" y1="858" y2="843" class="net_4"/>
  <line x1="40" x2="102" y1="224.5" y2="224.5" class="net_4"/>
  <line x1="102" x2="102" y1="224.5" y2="480.5" class="net_4"/>
  <line x1="102" x2="456" y1="480.5" y2="480.5" class="net_4"/>
  <circle cx="102" cy="480.5" r="2" style="fill:#000" class="net_4"/>
  <line x1="456" x2="456" y1="480.5" y2="454.5" class="net_4"/>
  <line x1="339" x2="384" y1="252.5" y2="252.5" class="net_71,72,73,74,75,76,77,78,79,80,81,82,83,84,85,86,87,88,89,90,91,92,93,94,95,96,97,98,99,100,101,102"/>
  <line x1="384" x2="384" y1="252.5" y2="429.5" class="net_71,72,73,74,75,76,77,78,79,80,81,82,83,84,85,86,87,88,89,90,91,92,93,94,95,96,97,98,99,100,101,102"/>
  <circle cx="384" cy="252.5" r="2" style="fill:#000" class="net_71,72,73,74,75,76,77,78,79,80,81,82,83,84,85,86,87,88,89,90,91,92,93,94,95,96,97,98,99,100,101,102"/>
  <line x1="384" x2="446" y1="429.5" y2="429.5" class="net_71,72,73,74,75,76,77,78,79,80,81,82,83,84,85,86,87,88,89,90,91,92,93,94,95,96,97,98,99,100,101,102"/>
  <line x1="339" x2="384" y1="252.5" y2="252.5" class="net_71,72,73,74,75,76,77,78,79,80,81,82,83,84,85,86,87,88,89,90,91,92,93,94,95,96,97,98,99,100,101,102"/>
  <line x1="384" x2="384" y1="252.5" y2="408.5" class="net_71,72,73,74,75,76,77,78,79,80,81,82,83,84,85,86,87,88,89,90,91,92,93,94,95,96,97,98,99,100,101,102"/>
  <circle cx="384" cy="408.5" r="2" style="fill:#000" class="net_71,72,73,74,75,76,77,78,79,80,81,82,83,84,85,86,87,88,89,90,91,92,93,94,95,96,97,98,99,100,101,102"/>
  <line x1="384" x2="540" y1="408.5" y2="408.5" class="net_71,72,73,74,75,76,77,78,79,80,81,82,83,84,85,86,87,88,89,90,91,92,93,94,95,96,97,98,99,100,101,102"/>
  <line x1="339" x2="540" y1="252.5" y2="252.5" class="net_71,72,73,74,75,76,77,78,79,80,81,82,83,84,85,86,87,88,89,90,91,92,93,94,95,96,97,98,99,100,101,102"/>
  <line x1="336" x2="446" y1="449.5" y2="449.5" class="net_5,6,7,8,9,10,11,12,13,14,15,16,17,18,19,20,21,22,23,24,25,26,27,28,29,30,31,32,33,34,35,36"/>
  <line x1="466" x2="515" y1="439.5" y2="439.5" class="net_208,209,210,211,212,213,214,215,216,217,218,219,220,221,222,223,224,225,226,227,228,229,230,231,232,233,234,235,236,237,238,239"/>
  <line x1="515" x2="515" y1="439.5" y2="388.5" class="net_208,209,210,211,212,213,214,215,216,217,218,219,220,221,222,223,224,225,226,227,228,229,230,231,232,233,234,235,236,237,238,239"/>
  <line x1="515" x2="540" y1="388.5" y2="388.5" class="net_208,209,210,211,212,213,214,215,216,217,218,219,220,221,222,223,224,225,226,227,228,229,230,231,232,233,234,235,236,237,238,239"/>
  <line x1="339" x2="404" y1="94.5" y2="94.5" class="net_37,38,39,40,41,42,43,44,45,46,47,48,49,50,51,52,53,54,55,56,57,58,59,60,61,62,63,64,65,66,67,68"/>
  <line x1="404" x2="404" y1="94.5" y2="328.5" class="net_37,38,39,40,41,42,43,44,45,46,47,48,49,50,51,52,53,54,55,56,57,58,59,60,61,62,63,64,65,66,67,68"/>
  <circle cx="404" cy="94.5" r="2" style="fill:#000" class="net_37,38,39,40,41,42,43,44,45,46,47,48,49,50,51,52,53,54,55,56,57,58,59,60,61,62,63,64,65,66,67,68"/>
  <line x1="404" x2="446" y1="328.5" y2="328.5" class="net_37,38,39,40,41,42,43,44,45,46,47,48,49,50,51,52,53,54,55,56,57,58,59,60,61,62,63,64,65,66,67,68"/>
  <line x1="339" x2="404" y1="94.5" y2="94.5" class="net_37,38,39,40,41,42,43,44,45,46,47,48,49,50,51,52,53,54,55,56,57,58,59,60,61,62,63,64,65,66,67,68"/>
  <line x1="404" x2="404" y1="94.5" y2="307.5" class="net_37,38,39,40,41,42,43,44,45,46,47,48,49,50,51,52,53,54,55,56,57,58,59,60,61,62,63,64,65,66,67,68"/>
  <circle cx="404" cy="307.5" r="2" style="fill:#000" class="net_37,38,39,40,41,42,43,44,45,46,47,48,49,50,51,52,53,54,55,56,57,58,59,60,61,62,63,64,65,66,67,68"/>
  <line x1="404" x2="540" y1="307.5" y2="307.5" class="net_37,38,39,40,41,42,43,44,45,46,47,48,49,50,51,52,53,54,55,56,57,58,59,60,61,62,63,64,65,66,67,68"/>
  <line x1="339" x2="404" y1="94.5" y2="94.5" class="net_37,38,39,40,41,42,43,44,45,46,47,48,49,50,51,52,53,54,55,56,57,58,59,60,61,62,63,64,65,66,67,68"/>
  <line x1="404" x2="404" y1="94.5" y2="32" class="net_37,38,39,40,41,42,43,44,45,46,47,48,49,50,51,52,53,54,55,56,57,58,59,60,61,62,63,64,65,66,67,68"/>
  <line x1="404" x2="540" y1="32" y2="32" class="net_37,38,39,40,41,42,43,44,45,46,47,48,49,50,51,52,53,54,55,56,57,58,59,60,61,62,63,64,65,66,67,68"/>
  <line x1="336" x2="394" y1="187" y2="187" class="net_104,105,106,107,108,109,110,111,112,113,114,115,116,117,118,119,120,121,122,123,124,125,126,127,128,129,130,131,132,133,134,135"/>
  <line x1="394" x2="394" y1="187" y2="348.5" class="net_104,105,106,107,108,109,110,111,112,113,114,115,116,117,118,119,120,121,122,123,124,125,126,127,128,129,130,131,132,133,134,135"/>
  <line x1="394" x2="446" y1="348.5" y2="348.5" class="net_104,105,106,107,108,109,110,111,112,113,114,115,116,117,118,119,120,121,122,123,124,125,126,127,128,129,130,131,132,133,134,135"/>
  <line x1="466" x2="515" y1="338.5" y2="338.5" class="net_240,241,242,243,244,245,246,247,248,249,250,251,252,253,254,255,256,257,258,259,260,261,262,263,264,265,266,267,268,269,270,271"/>
  <line x1="515" x2="515" y1="338.5" y2="327.5" class="net_240,241,242,243,244,245,246,247,248,249,250,251,252,253,254,255,256,257,258,259,260,261,262,263,264,265,266,267,268,269,270,271"/>
  <line x1="515" x2="540" y1="327.5" y2="327.5" class="net_240,241,242,243,244,245,246,247,248,249,250,251,252,253,254,255,256,257,258,259,260,261,262,263,264,265,266,267,268,269,270,271"/>
  <line x1="204" x2="253" y1="633" y2="633" class="net_207"/>
  <line x1="253" x2="253" y1="633" y2="572" class="net_207"/>
  <line x1="253" x2="315" y1="572" y2="572" class="net_207"/>
  <line x1="470" x2="540" y1="511" y2="511" class="net_69"/>
  <line x1="470" x2="540" y1="736" y2="736" class="net_70"/>
  <line x1="335" x2="451.3333333333333" y1="878" y2="878" class="net_205"/>
  <line x1="338.5" x2="384" y1="976" y2="976" class="net_206"/>
  <line x1="384" x2="384" y1="976" y2="975" class="net_206"/>
  <line x1="384" x2="451.3333333333333" y1="975" y2="975" class="net_206"/>
</svg>
