<svg xmlns="http://www.w3.org/2000/svg" xmlns:xlink="http://www.w3.org/1999/xlink" xmlns:s="https://github.com/nturley/netlistsvg" width="702" height="517">
  <style>svg {
    stroke:#000;
    fill:none;
  }
  text {
    fill:#000;
    stroke:none;
    font-size:10px;
    font-weight: bold;
    font-family: "Courier New", monospace;
  }
  .nodelabel {
    text-anchor: middle;
  }
  .inputPortLabel {
    text-anchor: end;
  }
  .splitjoinBody {
    fill:#000;
  }</style>
  <g s:type="add" transform="translate(497.6666666666667,195)" s:width="25" s:height="25" id="cell_$add$Src/pc/pc.sv:24$5">
    <s:alias val="$add"/>
    <circle r="12.5" cx="12.5" cy="12.5" class="cell_$add$Src/pc/pc.sv:24$5"/>
    <line x1="7.5" x2="17.5" y1="12.5" y2="12.5" class="cell_$add$Src/pc/pc.sv:24$5"/>
    <line x1="12.5" x2="12.5" y1="7.5" y2="17.5" class="cell_$add$Src/pc/pc.sv:24$5"/>
    <g s:x="3" s:y="5" s:pid="A"/>
    <g s:x="3" s:y="20" s:pid="B"/>
    <g s:x="25" s:y="12.5" s:pid="Y"/>
  </g>
  <g s:type="add" transform="translate(497.6666666666667,130)" s:width="25" s:height="25" id="cell_$add$Src/pc/pc.sv:26$6">
    <s:alias val="$add"/>
    <circle r="12.5" cx="12.5" cy="12.5" class="cell_$add$Src/pc/pc.sv:26$6"/>
    <line x1="7.5" x2="17.5" y1="12.5" y2="12.5" class="cell_$add$Src/pc/pc.sv:26$6"/>
    <line x1="12.5" x2="12.5" y1="7.5" y2="17.5" class="cell_$add$Src/pc/pc.sv:26$6"/>
    <g s:x="3" s:y="5" s:pid="A"/>
    <g s:x="3" s:y="20" s:pid="B"/>
    <g s:x="25" s:y="12.5" s:pid="Y"/>
  </g>
  <g s:type="and" transform="translate(203,275.5)" s:width="30" s:height="25" id="cell_$and$Src/pc/pc.sv:23$2">
    <s:alias val="$and"/>
    <s:alias val="$logic_and"/>
    <s:alias val="$_AND_"/>
    <path d="M0,0 L0,25 L15,25 A15 12.5 0 0 0 15,0 Z" class="cell_$and$Src/pc/pc.sv:23$2"/>
    <g s:x="0" s:y="5" s:pid="A"/>
    <g s:x="0" s:y="20" s:pid="B"/>
    <g s:x="30" s:y="12.5" s:pid="Y"/>
  </g>
  <g s:type="and" transform="translate(496,325.5)" s:width="30" s:height="25" id="cell_$logic_and$Src/pc/pc.sv:23$4">
    <s:alias val="$and"/>
    <s:alias val="$logic_and"/>
    <s:alias val="$_AND_"/>
    <path d="M0,0 L0,25 L15,25 A15 12.5 0 0 0 15,0 Z" class="cell_$logic_and$Src/pc/pc.sv:23$4"/>
    <g s:x="0" s:y="5" s:pid="A"/>
    <g s:x="0" s:y="20" s:pid="B"/>
    <g s:x="30" s:y="12.5" s:pid="Y"/>
  </g>
  <g s:type="generic" transform="translate(335,335)" s:width="30" s:height="40" id="cell_$ne$Src/pc/pc.sv:23$3">
    <text x="15" y="-4" class="nodelabel cell_$ne$Src/pc/pc.sv:23$3" s:attribute="ref">$reduce_bool</text>
    <rect width="30" height="20" s:generic="body" class="cell_$ne$Src/pc/pc.sv:23$3"/>
    <g transform="translate(0,10)" s:x="0" s:y="10" s:pid="in0" id="port_$ne$Src/pc/pc.sv:23$3~A">
      <text x="-3" y="-4" class="inputPortLabel cell_$ne$Src/pc/pc.sv:23$3">A</text>
    </g>
    <g transform="translate(30,10)" s:x="30" s:y="10" s:pid="out0" id="port_$ne$Src/pc/pc.sv:23$3~Y">
      <text x="5" y="-4" style="fill:#000; stroke:none" class="cell_$ne$Src/pc/pc.sv:23$3">Y</text>
    </g>
  </g>
  <g s:type="generic" transform="translate(379.5,32)" s:width="30" s:height="40" id="cell_$procdff$14">
    <text x="15" y="-4" class="nodelabel cell_$procdff$14" s:attribute="ref">$adff</text>
    <rect width="30" height="60" s:generic="body" class="cell_$procdff$14"/>
    <g transform="translate(0,10)" s:x="0" s:y="10" s:pid="in0" id="port_$procdff$14~ARST">
      <text x="-3" y="-4" class="inputPortLabel cell_$procdff$14">ARST</text>
    </g>
    <g transform="translate(0,30)" s:x="0" s:y="10" s:pid="in0" id="port_$procdff$14~CLK">
      <text x="-3" y="-4" class="inputPortLabel cell_$procdff$14">CLK</text>
    </g>
    <g transform="translate(0,50)" s:x="0" s:y="10" s:pid="in0" id="port_$procdff$14~D">
      <text x="-3" y="-4" class="inputPortLabel cell_$procdff$14">D</text>
    </g>
    <g transform="translate(30,10)" s:x="30" s:y="10" s:pid="out0" id="port_$procdff$14~Q">
      <text x="5" y="-4" style="fill:#000; stroke:none" class="cell_$procdff$14">Q</text>
    </g>
  </g>
  <g s:type="generic" transform="translate(102,270)" s:width="30" s:height="40" id="cell_$procdff$15">
    <text x="15" y="-4" class="nodelabel cell_$procdff$15" s:attribute="ref">$adff</text>
    <rect width="30" height="60" s:generic="body" class="cell_$procdff$15"/>
    <g transform="translate(0,10)" s:x="0" s:y="10" s:pid="in0" id="port_$procdff$15~ARST">
      <text x="-3" y="-4" class="inputPortLabel cell_$procdff$15">ARST</text>
    </g>
    <g transform="translate(0,30)" s:x="0" s:y="10" s:pid="in0" id="port_$procdff$15~CLK">
      <text x="-3" y="-4" class="inputPortLabel cell_$procdff$15">CLK</text>
    </g>
    <g transform="translate(0,50)" s:x="0" s:y="10" s:pid="in0" id="port_$procdff$15~D">
      <text x="-3" y="-4" class="inputPortLabel cell_$procdff$15">D</text>
    </g>
    <g transform="translate(30,10)" s:x="30" s:y="10" s:pid="out0" id="port_$procdff$15~Q">
      <text x="5" y="-4" style="fill:#000; stroke:none" class="cell_$procdff$15">Q</text>
    </g>
  </g>
  <g s:type="mux" transform="translate(570.3333333333334,177.5)" s:width="20" s:height="40" id="cell_$procmux$10">
    <s:alias val="$pmux"/>
    <s:alias val="$mux"/>
    <s:alias val="$_MUX_"/>
    <path d="M0,0 L20,10 L20,30 L0,40 Z" class="cell_$procmux$10"/>
    <g s:x="0" s:y="10" s:pid="A"/>
    <g s:x="0" s:y="30" s:pid="B"/>
    <g s:x="10" s:y="35" s:pid="S"/>
    <g s:x="20" s:y="20" s:pid="Y"/>
  </g>
  <g s:type="mux" transform="translate(644,167.5)" s:width="20" s:height="40" id="cell_$procmux$12">
    <s:alias val="$pmux"/>
    <s:alias val="$mux"/>
    <s:alias val="$_MUX_"/>
    <path d="M0,0 L20,10 L20,30 L0,40 Z" class="cell_$procmux$12"/>
    <g s:x="0" s:y="10" s:pid="A"/>
    <g s:x="0" s:y="30" s:pid="B"/>
    <g s:x="10" s:y="35" s:pid="S"/>
    <g s:x="20" s:y="20" s:pid="Y"/>
  </g>
  <g s:type="mux" transform="translate(644,400)" s:width="20" s:height="40" id="cell_$procmux$7">
    <s:alias val="$pmux"/>
    <s:alias val="$mux"/>
    <s:alias val="$_MUX_"/>
    <path d="M0,0 L20,10 L20,30 L0,40 Z" class="cell_$procmux$7"/>
    <g s:x="0" s:y="10" s:pid="A"/>
    <g s:x="0" s:y="30" s:pid="B"/>
    <g s:x="10" s:y="35" s:pid="S"/>
    <g s:x="20" s:y="20" s:pid="Y"/>
  </g>
  <g s:type="inputExt" transform="translate(12,290.5)" s:width="30" s:height="20" id="cell_clk">
    <text x="15" y="-4" class="nodelabel cell_clk" s:attribute="ref">clk</text>
    <s:alias val="$_inputExt_"/>
    <path d="M0,0 L0,20 L15,20 L30,10 L15,0 Z" class="cell_clk"/>
    <g s:x="28" s:y="10" s:pid="Y"/>
  </g>
  <g s:type="inputExt" transform="translate(12,32.5)" s:width="30" s:height="20" id="cell_rst">
    <text x="15" y="-4" class="nodelabel cell_rst" s:attribute="ref">rst</text>
    <s:alias val="$_inputExt_"/>
    <path d="M0,0 L0,20 L15,20 L30,10 L15,0 Z" class="cell_rst"/>
    <g s:x="28" s:y="10" s:pid="Y"/>
  </g>
  <g s:type="inputExt" transform="translate(561,358)" s:width="30" s:height="20" id="cell_pc_en">
    <text x="15" y="-4" class="nodelabel cell_pc_en" s:attribute="ref">pc_en</text>
    <s:alias val="$_inputExt_"/>
    <path d="M0,0 L0,20 L15,20 L30,10 L15,0 Z" class="cell_pc_en"/>
    <g s:x="28" s:y="10" s:pid="Y"/>
  </g>
  <g s:type="inputExt" transform="translate(335,270)" s:width="30" s:height="20" id="cell_branch_en">
    <text x="15" y="-4" class="nodelabel cell_branch_en" s:attribute="ref">branch_en</text>
    <s:alias val="$_inputExt_"/>
    <path d="M0,0 L0,20 L15,20 L30,10 L15,0 Z" class="cell_branch_en"/>
    <g s:x="28" s:y="10" s:pid="Y"/>
  </g>
  <g s:type="inputExt" transform="translate(335,205)" s:width="30" s:height="20" id="cell_branch_offset">
    <text x="15" y="-4" class="nodelabel cell_branch_offset" s:attribute="ref">branch_offset</text>
    <s:alias val="$_inputExt_"/>
    <path d="M0,0 L0,20 L15,20 L30,10 L15,0 Z" class="cell_branch_offset"/>
    <g s:x="28" s:y="10" s:pid="Y"/>
  </g>
  <g s:type="inputExt" transform="translate(561,485)" s:width="30" s:height="20" id="cell_nzp_en">
    <text x="15" y="-4" class="nodelabel cell_nzp_en" s:attribute="ref">nzp_en</text>
    <s:alias val="$_inputExt_"/>
    <path d="M0,0 L0,20 L15,20 L30,10 L15,0 Z" class="cell_nzp_en"/>
    <g s:x="28" s:y="10" s:pid="Y"/>
  </g>
  <g s:type="inputExt" transform="translate(561,420)" s:width="30" s:height="20" id="cell_nzp_flag">
    <text x="15" y="-4" class="nodelabel cell_nzp_flag" s:attribute="ref">nzp_flag</text>
    <s:alias val="$_inputExt_"/>
    <path d="M0,0 L0,20 L15,20 L30,10 L15,0 Z" class="cell_nzp_flag"/>
    <g s:x="28" s:y="10" s:pid="Y"/>
  </g>
  <g s:type="inputExt" transform="translate(102,205)" s:width="30" s:height="20" id="cell_nzp_mask">
    <text x="15" y="-4" class="nodelabel cell_nzp_mask" s:attribute="ref">nzp_mask</text>
    <s:alias val="$_inputExt_"/>
    <path d="M0,0 L0,20 L15,20 L30,10 L15,0 Z" class="cell_nzp_mask"/>
    <g s:x="28" s:y="10" s:pid="Y"/>
  </g>
  <g s:type="outputExt" transform="translate(644,32.5)" s:width="30" s:height="20" id="cell_pc_out">
    <text x="15" y="-4" class="nodelabel cell_pc_out" s:attribute="ref">pc_out</text>
    <s:alias val="$_outputExt_"/>
    <path d="M30,0 L30,20 L15,20 L0,10 L15,0 Z" class="cell_pc_out"/>
    <g s:x="0" s:y="10" s:pid="A"/>
  </g>
  <g s:type="constant" transform="translate(335,140)" s:width="30" s:height="20" id="cell_1">
    <text x="15" y="-4" class="nodelabel cell_1" s:attribute="ref">1</text>
    <s:alias val="$_constant_"/>
    <rect width="30" height="20" class="cell_1"/>
    <g s:x="30" s:y="10" s:pid="Y"/>
  </g>
  <g s:type="constant" transform="translate(203,345.5)" s:width="30" s:height="20" id="cell_00000000000000000000000000000">
    <text x="15" y="-4" class="nodelabel cell_00000000000000000000000000000" s:attribute="ref">0x0</text>
    <s:alias val="$_constant_"/>
    <rect width="30" height="20" class="cell_00000000000000000000000000000"/>
    <g s:x="30" s:y="10" s:pid="Y"/>
  </g>
  <g s:type="join" transform="translate(287,325)" s:width="4" s:height="40" id="cell_$join$,135,136,137,208,209,210,211,212,213,214,215,216,217,218,219,220,221,222,223,224,225,226,227,228,229,230,231,232,233,234,235,236,">
    <rect width="5" height="40" class="splitjoinBody" s:generic="body"/>
    <s:alias val="$_join_"/>
    <g s:x="5" s:y="20" s:pid="out"/>
    <g transform="translate(0,10)" s:x="0" s:y="10" s:pid="in0">
      <text x="-3" y="-4" class="inputPortLabel">0:2</text>
    </g>
    <g transform="translate(0,30)" s:x="0" s:y="10" s:pid="in0">
      <text x="-3" y="-4" class="inputPortLabel">3:31</text>
    </g>
  </g>
  <line x1="410.5" x2="471" y1="42.5" y2="42.5" class="net_36,37,38,39,40,41,42,43,44,45,46,47,48,49,50,51,52,53,54,55,56,57,58,59,60,61,62,63,64,65,66,67"/>
  <line x1="471" x2="471" y1="42.5" y2="200" class="net_36,37,38,39,40,41,42,43,44,45,46,47,48,49,50,51,52,53,54,55,56,57,58,59,60,61,62,63,64,65,66,67"/>
  <circle cx="471" cy="42.5" r="2" style="fill:#000" class="net_36,37,38,39,40,41,42,43,44,45,46,47,48,49,50,51,52,53,54,55,56,57,58,59,60,61,62,63,64,65,66,67"/>
  <line x1="471" x2="500.6666666666667" y1="200" y2="200" class="net_36,37,38,39,40,41,42,43,44,45,46,47,48,49,50,51,52,53,54,55,56,57,58,59,60,61,62,63,64,65,66,67"/>
  <line x1="410.5" x2="471" y1="42.5" y2="42.5" class="net_36,37,38,39,40,41,42,43,44,45,46,47,48,49,50,51,52,53,54,55,56,57,58,59,60,61,62,63,64,65,66,67"/>
  <line x1="471" x2="471" y1="42.5" y2="135" class="net_36,37,38,39,40,41,42,43,44,45,46,47,48,49,50,51,52,53,54,55,56,57,58,59,60,61,62,63,64,65,66,67"/>
  <circle cx="471" cy="135" r="2" style="fill:#000" class="net_36,37,38,39,40,41,42,43,44,45,46,47,48,49,50,51,52,53,54,55,56,57,58,59,60,61,62,63,64,65,66,67"/>
  <line x1="471" x2="500.6666666666667" y1="135" y2="135" class="net_36,37,38,39,40,41,42,43,44,45,46,47,48,49,50,51,52,53,54,55,56,57,58,59,60,61,62,63,64,65,66,67"/>
  <line x1="410.5" x2="619" y1="42.5" y2="42.5" class="net_36,37,38,39,40,41,42,43,44,45,46,47,48,49,50,51,52,53,54,55,56,57,58,59,60,61,62,63,64,65,66,67"/>
  <line x1="619" x2="619" y1="42.5" y2="177.5" class="net_36,37,38,39,40,41,42,43,44,45,46,47,48,49,50,51,52,53,54,55,56,57,58,59,60,61,62,63,64,65,66,67"/>
  <circle cx="619" cy="42.5" r="2" style="fill:#000" class="net_36,37,38,39,40,41,42,43,44,45,46,47,48,49,50,51,52,53,54,55,56,57,58,59,60,61,62,63,64,65,66,67"/>
  <line x1="619" x2="644" y1="177.5" y2="177.5" class="net_36,37,38,39,40,41,42,43,44,45,46,47,48,49,50,51,52,53,54,55,56,57,58,59,60,61,62,63,64,65,66,67"/>
  <line x1="410.5" x2="644" y1="42.5" y2="42.5" class="net_36,37,38,39,40,41,42,43,44,45,46,47,48,49,50,51,52,53,54,55,56,57,58,59,60,61,62,63,64,65,66,67"/>
  <line x1="363" x2="500.6666666666667" y1="215" y2="215" class="net_6,7,8,9,10,11,12,13,14,15,16,17,18,19,20,21,22,23,24,25,26,27,28"/>
  <line x1="365" x2="500.6666666666667" y1="150" y2="150" class="net_207"/>
  <line x1="133" x2="203" y1="280.5" y2="280.5" class="net_132,133,134"/>
  <line x1="133" x2="178" y1="280.5" y2="280.5" class="net_132,133,134"/>
  <line x1="178" x2="178" y1="280.5" y2="399" class="net_132,133,134"/>
  <line x1="178" x2="619" y1="399" y2="399" class="net_132,133,134"/>
  <line x1="619" x2="619" y1="399" y2="410" class="net_132,133,134"/>
  <circle cx="178" cy="280.5" r="2" style="fill:#000" class="net_132,133,134"/>
  <line x1="619" x2="644" y1="410" y2="410" class="net_132,133,134"/>
  <line x1="130" x2="188" y1="215" y2="215" class="net_33,34,35"/>
  <line x1="188" x2="188" y1="215" y2="295.5" class="net_33,34,35"/>
  <line x1="188" x2="203" y1="295.5" y2="295.5" class="net_33,34,35"/>
  <line x1="363" x2="471" y1="280" y2="280" class="net_5"/>
  <line x1="471" x2="471" y1="280" y2="330.5" class="net_5"/>
  <line x1="471" x2="496" y1="330.5" y2="330.5" class="net_5"/>
  <line x1="366" x2="496" y1="345.5" y2="345.5" class="net_138"/>
  <line x1="293" x2="335" y1="345.5" y2="345.5" class="net_135,136,137,208,209,210,211,212,213,214,215,216,217,218,219,220,221,222,223,224,225,226,227,228,229,230,231,232,233,234,235,236"/>
  <line x1="40" x2="379.5" y1="42.5" y2="42.5" class="net_3"/>
  <line x1="40" x2="62" y1="42.5" y2="42.5" class="net_3"/>
  <line x1="62" x2="62" y1="42.5" y2="280.5" class="net_3"/>
  <circle cx="62" cy="42.5" r="2" style="fill:#000" class="net_3"/>
  <line x1="62" x2="102" y1="280.5" y2="280.5" class="net_3"/>
  <line x1="40" x2="52" y1="300.5" y2="300.5" class="net_2"/>
  <line x1="52" x2="52" y1="300.5" y2="62.5" class="net_2"/>
  <circle cx="52" cy="300.5" r="2" style="fill:#000" class="net_2"/>
  <line x1="52" x2="379.5" y1="62.5" y2="62.5" class="net_2"/>
  <line x1="40" x2="102" y1="300.5" y2="300.5" class="net_2"/>
  <line x1="664" x2="690" y1="187.5" y2="187.5" class="net_140,141,142,143,144,145,146,147,148,149,150,151,152,153,154,155,156,157,158,159,160,161,162,163,164,165,166,167,168,169,170,171"/>
  <line x1="690" x2="690" y1="187.5" y2="12" class="net_140,141,142,143,144,145,146,147,148,149,150,151,152,153,154,155,156,157,158,159,160,161,162,163,164,165,166,167,168,169,170,171"/>
  <line x1="690" x2="303" y1="12" y2="12" class="net_140,141,142,143,144,145,146,147,148,149,150,151,152,153,154,155,156,157,158,159,160,161,162,163,164,165,166,167,168,169,170,171"/>
  <line x1="303" x2="303" y1="12" y2="82.5" class="net_140,141,142,143,144,145,146,147,148,149,150,151,152,153,154,155,156,157,158,159,160,161,162,163,164,165,166,167,168,169,170,171"/>
  <line x1="303" x2="379.5" y1="82.5" y2="82.5" class="net_140,141,142,143,144,145,146,147,148,149,150,151,152,153,154,155,156,157,158,159,160,161,162,163,164,165,166,167,168,169,170,171"/>
  <line x1="664" x2="690" y1="420" y2="420" class="net_172,173,174"/>
  <line x1="690" x2="690" y1="420" y2="388" class="net_172,173,174"/>
  <line x1="690" x2="62" y1="388" y2="388" class="net_172,173,174"/>
  <line x1="62" x2="62" y1="388" y2="320.5" class="net_172,173,174"/>
  <line x1="62" x2="102" y1="320.5" y2="320.5" class="net_172,173,174"/>
  <line x1="522.6666666666667" x2="536" y1="142.5" y2="142.5" class="net_100,101,102,103,104,105,106,107,108,109,110,111,112,113,114,115,116,117,118,119,120,121,122,123,124,125,126,127,128,129,130,131"/>
  <line x1="536" x2="536" y1="142.5" y2="187.5" class="net_100,101,102,103,104,105,106,107,108,109,110,111,112,113,114,115,116,117,118,119,120,121,122,123,124,125,126,127,128,129,130,131"/>
  <line x1="536" x2="570.3333333333334" y1="187.5" y2="187.5" class="net_100,101,102,103,104,105,106,107,108,109,110,111,112,113,114,115,116,117,118,119,120,121,122,123,124,125,126,127,128,129,130,131"/>
  <line x1="522.6666666666667" x2="570.3333333333334" y1="207.5" y2="207.5" class="net_68,69,70,71,72,73,74,75,76,77,78,79,80,81,82,83,84,85,86,87,88,89,90,91,92,93,94,95,96,97,98,99"/>
  <line x1="526" x2="580.3333333333334" y1="338" y2="338" class="net_139"/>
  <line x1="580.3333333333334" x2="580.3333333333334" y1="338" y2="212.5" class="net_139"/>
  <line x1="590.3333333333334" x2="644" y1="197.5" y2="197.5" class="net_175,176,177,178,179,180,181,182,183,184,185,186,187,188,189,190,191,192,193,194,195,196,197,198,199,200,201,202,203,204,205,206"/>
  <line x1="589" x2="654" y1="368" y2="368" class="net_4"/>
  <line x1="654" x2="654" y1="368" y2="202.5" class="net_4"/>
  <line x1="589" x2="644" y1="430" y2="430" class="net_30,31,32"/>
  <line x1="589" x2="654" y1="495" y2="495" class="net_29"/>
  <line x1="654" x2="654" y1="495" y2="435" class="net_29"/>
  <line x1="233" x2="243" y1="288" y2="288" class="net_135,136,137"/>
  <line x1="243" x2="243" y1="288" y2="335.5" class="net_135,136,137"/>
  <line x1="243" x2="287" y1="335.5" y2="335.5" class="net_135,136,137"/>
  <line x1="233" x2="287" y1="355.5" y2="355.5" class="net_208,209,210,211,212,213,214,215,216,217,218,219,220,221,222,223,224,225,226,227,228,229,230,231,232,233,234,235,236"/>
</svg>
