<svg xmlns="http://www.w3.org/2000/svg" xmlns:xlink="http://www.w3.org/1999/xlink" xmlns:s="https://github.com/nturley/netlistsvg" width="718" height="1029">
  <style>svg {
    stroke:#000;
    fill:none;
  }
  text {
    fill:#000;
    stroke:none;
    font-size:10px;
    font-weight: bold;
    font-family: "Courier New", monospace;
  }
  .nodelabel {
    text-anchor: middle;
  }
  .inputPortLabel {
    text-anchor: end;
  }
  .splitjoinBody {
    fill:#000;
  }</style>
  <g s:type="generic" transform="translate(278,39)" s:width="30" s:height="40" id="cell_$auto$proc_rom.cc:150:do_switch$4">
    <text x="15" y="-4" class="nodelabel cell_$auto$proc_rom.cc:150:do_switch$4" s:attribute="ref">$mem_v2</text>
    <rect width="30" height="180" s:generic="body" class="cell_$auto$proc_rom.cc:150:do_switch$4"/>
    <g transform="translate(0,10)" s:x="0" s:y="10" s:pid="in0" id="port_$auto$proc_rom.cc:150:do_switch$4~RD_ADDR">
      <text x="-3" y="-4" class="inputPortLabel cell_$auto$proc_rom.cc:150:do_switch$4">RD_ADDR</text>
    </g>
    <g transform="translate(0,30)" s:x="0" s:y="10" s:pid="in0" id="port_$auto$proc_rom.cc:150:do_switch$4~RD_ARST">
      <text x="-3" y="-4" class="inputPortLabel cell_$auto$proc_rom.cc:150:do_switch$4">RD_ARST</text>
    </g>
    <g transform="translate(0,50)" s:x="0" s:y="10" s:pid="in0" id="port_$auto$proc_rom.cc:150:do_switch$4~RD_CLK">
      <text x="-3" y="-4" class="inputPortLabel cell_$auto$proc_rom.cc:150:do_switch$4">RD_CLK</text>
    </g>
    <g transform="translate(0,70)" s:x="0" s:y="10" s:pid="in0" id="port_$auto$proc_rom.cc:150:do_switch$4~RD_EN">
      <text x="-3" y="-4" class="inputPortLabel cell_$auto$proc_rom.cc:150:do_switch$4">RD_EN</text>
    </g>
    <g transform="translate(0,90)" s:x="0" s:y="10" s:pid="in0" id="port_$auto$proc_rom.cc:150:do_switch$4~RD_SRST">
      <text x="-3" y="-4" class="inputPortLabel cell_$auto$proc_rom.cc:150:do_switch$4">RD_SRST</text>
    </g>
    <g transform="translate(0,110)" s:x="0" s:y="10" s:pid="in0" id="port_$auto$proc_rom.cc:150:do_switch$4~WR_ADDR">
      <text x="-3" y="-4" class="inputPortLabel cell_$auto$proc_rom.cc:150:do_switch$4">WR_ADDR</text>
    </g>
    <g transform="translate(0,130)" s:x="0" s:y="10" s:pid="in0" id="port_$auto$proc_rom.cc:150:do_switch$4~WR_CLK">
      <text x="-3" y="-4" class="inputPortLabel cell_$auto$proc_rom.cc:150:do_switch$4">WR_CLK</text>
    </g>
    <g transform="translate(0,150)" s:x="0" s:y="10" s:pid="in0" id="port_$auto$proc_rom.cc:150:do_switch$4~WR_DATA">
      <text x="-3" y="-4" class="inputPortLabel cell_$auto$proc_rom.cc:150:do_switch$4">WR_DATA</text>
    </g>
    <g transform="translate(0,170)" s:x="0" s:y="10" s:pid="in0" id="port_$auto$proc_rom.cc:150:do_switch$4~WR_EN">
      <text x="-3" y="-4" class="inputPortLabel cell_$auto$proc_rom.cc:150:do_switch$4">WR_EN</text>
    </g>
    <g transform="translate(30,10)" s:x="30" s:y="10" s:pid="out0" id="port_$auto$proc_rom.cc:150:do_switch$4~RD_DATA">
      <text x="5" y="-4" style="fill:#000; stroke:none" class="cell_$auto$proc_rom.cc:150:do_switch$4">RD_DATA</text>
    </g>
  </g>
  <g s:type="mux" transform="translate(511,247)" s:width="20" s:height="40" id="cell_$procmux$8">
    <s:alias val="$pmux"/>
    <s:alias val="$mux"/>
    <s:alias val="$_MUX_"/>
    <path d="M0,0 L20,10 L20,30 L0,40 Z" class="cell_$procmux$8"/>
    <g s:x="0" s:y="10" s:pid="A"/>
    <g s:x="0" s:y="30" s:pid="B"/>
    <g s:x="10" s:y="35" s:pid="S"/>
    <g s:x="20" s:y="20" s:pid="Y"/>
  </g>
  <g s:type="inputExt" transform="translate(12,729.5)" s:width="30" s:height="20" id="cell_instruction">
    <text x="15" y="-4" class="nodelabel cell_instruction" s:attribute="ref">instruction</text>
    <s:alias val="$_inputExt_"/>
    <path d="M0,0 L0,20 L15,20 L30,10 L15,0 Z" class="cell_instruction"/>
    <g s:x="28" s:y="10" s:pid="Y"/>
  </g>
  <g s:type="outputExt" transform="translate(628,412)" s:width="30" s:height="20" id="cell_opcode">
    <text x="15" y="-4" class="nodelabel cell_opcode" s:attribute="ref">opcode</text>
    <s:alias val="$_outputExt_"/>
    <path d="M30,0 L30,20 L15,20 L0,10 L15,0 Z" class="cell_opcode"/>
    <g s:x="0" s:y="10" s:pid="A"/>
  </g>
  <g s:type="outputExt" transform="translate(628,542)" s:width="30" s:height="20" id="cell_rd_addr">
    <text x="15" y="-4" class="nodelabel cell_rd_addr" s:attribute="ref">rd_addr</text>
    <s:alias val="$_outputExt_"/>
    <path d="M30,0 L30,20 L15,20 L0,10 L15,0 Z" class="cell_rd_addr"/>
    <g s:x="0" s:y="10" s:pid="A"/>
  </g>
  <g s:type="outputExt" transform="translate(628,607)" s:width="30" s:height="20" id="cell_rs1_addr">
    <text x="15" y="-4" class="nodelabel cell_rs1_addr" s:attribute="ref">rs1_addr</text>
    <s:alias val="$_outputExt_"/>
    <path d="M30,0 L30,20 L15,20 L0,10 L15,0 Z" class="cell_rs1_addr"/>
    <g s:x="0" s:y="10" s:pid="A"/>
  </g>
  <g s:type="outputExt" transform="translate(628,672)" s:width="30" s:height="20" id="cell_rs2_addr">
    <text x="15" y="-4" class="nodelabel cell_rs2_addr" s:attribute="ref">rs2_addr</text>
    <s:alias val="$_outputExt_"/>
    <path d="M30,0 L30,20 L15,20 L0,10 L15,0 Z" class="cell_rs2_addr"/>
    <g s:x="0" s:y="10" s:pid="A"/>
  </g>
  <g s:type="outputExt" transform="translate(628,737)" s:width="30" s:height="20" id="cell_rs3_addr">
    <text x="15" y="-4" class="nodelabel cell_rs3_addr" s:attribute="ref">rs3_addr</text>
    <s:alias val="$_outputExt_"/>
    <path d="M30,0 L30,20 L15,20 L0,10 L15,0 Z" class="cell_rs3_addr"/>
    <g s:x="0" s:y="10" s:pid="A"/>
  </g>
  <g s:type="outputExt" transform="translate(628,802)" s:width="30" s:height="20" id="cell_imm">
    <text x="15" y="-4" class="nodelabel cell_imm" s:attribute="ref">imm</text>
    <s:alias val="$_outputExt_"/>
    <path d="M30,0 L30,20 L15,20 L0,10 L15,0 Z" class="cell_imm"/>
    <g s:x="0" s:y="10" s:pid="A"/>
  </g>
  <g s:type="outputExt" transform="translate(628,867)" s:width="30" s:height="20" id="cell_nzp_mask">
    <text x="15" y="-4" class="nodelabel cell_nzp_mask" s:attribute="ref">nzp_mask</text>
    <s:alias val="$_outputExt_"/>
    <path d="M30,0 L30,20 L15,20 L0,10 L15,0 Z" class="cell_nzp_mask"/>
    <g s:x="0" s:y="10" s:pid="A"/>
  </g>
  <g s:type="outputExt" transform="translate(628,932)" s:width="30" s:height="20" id="cell_sync_offset">
    <text x="15" y="-4" class="nodelabel cell_sync_offset" s:attribute="ref">sync_offset</text>
    <s:alias val="$_outputExt_"/>
    <path d="M30,0 L30,20 L15,20 L0,10 L15,0 Z" class="cell_sync_offset"/>
    <g s:x="0" s:y="10" s:pid="A"/>
  </g>
  <g s:type="outputExt" transform="translate(628,997)" s:width="30" s:height="20" id="cell_branch_offset">
    <text x="15" y="-4" class="nodelabel cell_branch_offset" s:attribute="ref">branch_offset</text>
    <s:alias val="$_outputExt_"/>
    <path d="M30,0 L30,20 L15,20 L0,10 L15,0 Z" class="cell_branch_offset"/>
    <g s:x="0" s:y="10" s:pid="A"/>
  </g>
  <g s:type="outputExt" transform="translate(628,22)" s:width="30" s:height="20" id="cell_sync_en">
    <text x="15" y="-4" class="nodelabel cell_sync_en" s:attribute="ref">sync_en</text>
    <s:alias val="$_outputExt_"/>
    <path d="M30,0 L30,20 L15,20 L0,10 L15,0 Z" class="cell_sync_en"/>
    <g s:x="0" s:y="10" s:pid="A"/>
  </g>
  <g s:type="outputExt" transform="translate(628,87)" s:width="30" s:height="20" id="cell_ret">
    <text x="15" y="-4" class="nodelabel cell_ret" s:attribute="ref">ret</text>
    <s:alias val="$_outputExt_"/>
    <path d="M30,0 L30,20 L15,20 L0,10 L15,0 Z" class="cell_ret"/>
    <g s:x="0" s:y="10" s:pid="A"/>
  </g>
  <g s:type="outputExt" transform="translate(628,152)" s:width="30" s:height="20" id="cell_write_back_en">
    <text x="15" y="-4" class="nodelabel cell_write_back_en" s:attribute="ref">write_back_en</text>
    <s:alias val="$_outputExt_"/>
    <path d="M30,0 L30,20 L15,20 L0,10 L15,0 Z" class="cell_write_back_en"/>
    <g s:x="0" s:y="10" s:pid="A"/>
  </g>
  <g s:type="outputExt" transform="translate(628,217)" s:width="30" s:height="20" id="cell_mem_read_en">
    <text x="15" y="-4" class="nodelabel cell_mem_read_en" s:attribute="ref">mem_read_en</text>
    <s:alias val="$_outputExt_"/>
    <path d="M30,0 L30,20 L15,20 L0,10 L15,0 Z" class="cell_mem_read_en"/>
    <g s:x="0" s:y="10" s:pid="A"/>
  </g>
  <g s:type="outputExt" transform="translate(628,282)" s:width="30" s:height="20" id="cell_mem_write_en">
    <text x="15" y="-4" class="nodelabel cell_mem_write_en" s:attribute="ref">mem_write_en</text>
    <s:alias val="$_outputExt_"/>
    <path d="M30,0 L30,20 L15,20 L0,10 L15,0 Z" class="cell_mem_write_en"/>
    <g s:x="0" s:y="10" s:pid="A"/>
  </g>
  <g s:type="outputExt" transform="translate(628,347)" s:width="30" s:height="20" id="cell_branch_en">
    <text x="15" y="-4" class="nodelabel cell_branch_en" s:attribute="ref">branch_en</text>
    <s:alias val="$_outputExt_"/>
    <path d="M30,0 L30,20 L15,20 L0,10 L15,0 Z" class="cell_branch_en"/>
    <g s:x="0" s:y="10" s:pid="A"/>
  </g>
  <g s:type="outputExt" transform="translate(628,477)" s:width="30" s:height="20" id="cell_nzp_en">
    <text x="15" y="-4" class="nodelabel cell_nzp_en" s:attribute="ref">nzp_en</text>
    <s:alias val="$_outputExt_"/>
    <path d="M30,0 L30,20 L15,20 L0,10 L15,0 Z" class="cell_nzp_en"/>
    <g s:x="0" s:y="10" s:pid="A"/>
  </g>
  <g s:type="constant" transform="translate(115,29.5)" s:width="30" s:height="20" id="cell_0">
    <text x="15" y="-4" class="nodelabel cell_0" s:attribute="ref">0</text>
    <s:alias val="$_constant_"/>
    <rect width="30" height="20" class="cell_0"/>
    <g s:x="30" s:y="10" s:pid="Y"/>
  </g>
  <g s:type="constant" transform="translate(115,94.5)" s:width="30" s:height="20" id="cell_1">
    <text x="15" y="-4" class="nodelabel cell_1" s:attribute="ref">1</text>
    <s:alias val="$_constant_"/>
    <rect width="30" height="20" class="cell_1"/>
    <g s:x="30" s:y="10" s:pid="Y"/>
  </g>
  <g s:type="constant" transform="translate(278,267)" s:width="30" s:height="20" id="cell_0000000">
    <text x="15" y="-4" class="nodelabel cell_0000000" s:attribute="ref">0x0</text>
    <s:alias val="$_constant_"/>
    <rect width="30" height="20" class="cell_0000000"/>
    <g s:x="30" s:y="10" s:pid="Y"/>
  </g>
  <g s:type="split" transform="translate(140,751.5)" s:width="5" s:height="40" id="cell_$split$,2,3,4,5,6,7,8,9,10,11,12,13,14,15,16,17,18,19,20,21,22,23,24,25,26,27,28,29,30,31,32,33,">
    <rect width="5" height="220" class="splitjoinBody" s:generic="body"/>
    <s:alias val="$_split_"/>
    <g s:x="0" s:y="20" s:pid="in"/>
    <g transform="translate(4,10)" s:x="4" s:y="10" s:pid="out0">
      <text x="5" y="-4">26:30</text>
    </g>
    <g transform="translate(4,30)" s:x="4" s:y="10" s:pid="out0">
      <text x="5" y="-4">31</text>
    </g>
    <g transform="translate(4,50)" s:x="4" s:y="10" s:pid="out0">
      <text x="5" y="-4">26:31</text>
    </g>
    <g transform="translate(4,70)" s:x="4" s:y="10" s:pid="out0">
      <text x="5" y="-4">21:25</text>
    </g>
    <g transform="translate(4,90)" s:x="4" s:y="10" s:pid="out0">
      <text x="5" y="-4">16:20</text>
    </g>
    <g transform="translate(4,110)" s:x="4" s:y="10" s:pid="out0">
      <text x="5" y="-4">11:15</text>
    </g>
    <g transform="translate(4,130)" s:x="4" s:y="10" s:pid="out0">
      <text x="5" y="-4">6:10</text>
    </g>
    <g transform="translate(4,150)" s:x="4" s:y="10" s:pid="out0">
      <text x="5" y="-4">0:15</text>
    </g>
    <g transform="translate(4,170)" s:x="4" s:y="10" s:pid="out0">
      <text x="5" y="-4">23:25</text>
    </g>
    <g transform="translate(4,190)" s:x="4" s:y="10" s:pid="out0">
      <text x="5" y="-4">12:22</text>
    </g>
    <g transform="translate(4,210)" s:x="4" s:y="10" s:pid="out0">
      <text x="5" y="-4">0:11</text>
    </g>
  </g>
  <g s:type="split" transform="translate(566,246.5)" s:width="5" s:height="40" id="cell_$split$,34,35,36,37,38,39,40,">
    <rect width="5" height="140" class="splitjoinBody" s:generic="body"/>
    <s:alias val="$_split_"/>
    <g s:x="0" s:y="20" s:pid="in"/>
    <g transform="translate(4,10)" s:x="4" s:y="10" s:pid="out0">
      <text x="5" y="-4">0</text>
    </g>
    <g transform="translate(4,30)" s:x="4" s:y="10" s:pid="out0">
      <text x="5" y="-4">1</text>
    </g>
    <g transform="translate(4,50)" s:x="4" s:y="10" s:pid="out0">
      <text x="5" y="-4">2</text>
    </g>
    <g transform="translate(4,70)" s:x="4" s:y="10" s:pid="out0">
      <text x="5" y="-4">3</text>
    </g>
    <g transform="translate(4,90)" s:x="4" s:y="10" s:pid="out0">
      <text x="5" y="-4">4</text>
    </g>
    <g transform="translate(4,110)" s:x="4" s:y="10" s:pid="out0">
      <text x="5" y="-4">5</text>
    </g>
    <g transform="translate(4,130)" s:x="4" s:y="10" s:pid="out0">
      <text x="5" y="-4">6</text>
    </g>
  </g>
  <line x1="144.5" x2="144.5" y1="761.5" y2="159.5" class="net_28,29,30,31,32"/>
  <line x1="144.5" x2="155" y1="159.5" y2="159.5" class="net_28,29,30,31,32"/>
  <line x1="155" x2="155" y1="159.5" y2="49.5" class="net_28,29,30,31,32"/>
  <line x1="155" x2="278" y1="49.5" y2="49.5" class="net_28,29,30,31,32"/>
  <line x1="145" x2="175" y1="39.5" y2="39.5" class="net_48"/>
  <line x1="175" x2="175" y1="39.5" y2="69.5" class="net_48"/>
  <circle cx="175" cy="69.5" r="2" style="fill:#000" class="net_48"/>
  <line x1="175" x2="278" y1="69.5" y2="69.5" class="net_48"/>
  <line x1="145" x2="175" y1="39.5" y2="39.5" class="net_48"/>
  <line x1="175" x2="175" y1="39.5" y2="129.5" class="net_48"/>
  <line x1="175" x2="278" y1="129.5" y2="129.5" class="net_48"/>
  <line x1="145" x2="165" y1="104.5" y2="104.5" class="net_49"/>
  <line x1="165" x2="165" y1="104.5" y2="109.5" class="net_49"/>
  <line x1="165" x2="278" y1="109.5" y2="109.5" class="net_49"/>
  <line x1="165" x2="278" y1="149.5" y2="149.5" class="net_"/>
  <line x1="165" x2="165" y1="149.5" y2="169.5" class="net_"/>
  <circle cx="165" cy="169.5" r="2" style="fill:#000" class="net_"/>
  <line x1="165" x2="278" y1="169.5" y2="169.5" class="net_"/>
  <line x1="165" x2="165" y1="149.5" y2="189.5" class="net_"/>
  <circle cx="165" cy="189.5" r="2" style="fill:#000" class="net_"/>
  <line x1="165" x2="278" y1="189.5" y2="189.5" class="net_"/>
  <line x1="165" x2="165" y1="149.5" y2="209.5" class="net_"/>
  <line x1="165" x2="278" y1="209.5" y2="209.5" class="net_"/>
  <line x1="309" x2="486" y1="49.5" y2="49.5" class="net_41,42,43,44,45,46,47"/>
  <line x1="486" x2="486" y1="49.5" y2="257" class="net_41,42,43,44,45,46,47"/>
  <line x1="486" x2="511" y1="257" y2="257" class="net_41,42,43,44,45,46,47"/>
  <line x1="308" x2="511" y1="277" y2="277" class="net_51,52,53,54,55,56,57"/>
  <line x1="145" x2="155" y1="782" y2="782" class="net_33"/>
  <line x1="155" x2="155" y1="782" y2="411" class="net_33"/>
  <line x1="155" x2="521" y1="411" y2="411" class="net_33"/>
  <line x1="521" x2="521" y1="411" y2="282" class="net_33"/>
  <line x1="145" x2="165" y1="802" y2="802" class="net_28,29,30,31,32,33"/>
  <line x1="165" x2="165" y1="802" y2="422" class="net_28,29,30,31,32,33"/>
  <line x1="165" x2="628" y1="422" y2="422" class="net_28,29,30,31,32,33"/>
  <line x1="145" x2="175" y1="822" y2="822" class="net_23,24,25,26,27"/>
  <line x1="175" x2="175" y1="822" y2="552" class="net_23,24,25,26,27"/>
  <line x1="175" x2="628" y1="552" y2="552" class="net_23,24,25,26,27"/>
  <line x1="145" x2="185" y1="842" y2="842" class="net_18,19,20,21,22"/>
  <line x1="185" x2="185" y1="842" y2="617" class="net_18,19,20,21,22"/>
  <line x1="185" x2="628" y1="617" y2="617" class="net_18,19,20,21,22"/>
  <line x1="145" x2="195" y1="862" y2="862" class="net_13,14,15,16,17"/>
  <line x1="195" x2="195" y1="862" y2="682" class="net_13,14,15,16,17"/>
  <line x1="195" x2="628" y1="682" y2="682" class="net_13,14,15,16,17"/>
  <line x1="145" x2="205" y1="882" y2="882" class="net_8,9,10,11,12"/>
  <line x1="205" x2="205" y1="882" y2="747" class="net_8,9,10,11,12"/>
  <line x1="205" x2="628" y1="747" y2="747" class="net_8,9,10,11,12"/>
  <line x1="145" x2="215" y1="902" y2="902" class="net_2,3,4,5,6,7,8,9,10,11,12,13,14,15,16,17"/>
  <line x1="215" x2="215" y1="902" y2="812" class="net_2,3,4,5,6,7,8,9,10,11,12,13,14,15,16,17"/>
  <line x1="215" x2="628" y1="812" y2="812" class="net_2,3,4,5,6,7,8,9,10,11,12,13,14,15,16,17"/>
  <line x1="145" x2="225" y1="922" y2="922" class="net_25,26,27"/>
  <line x1="225" x2="225" y1="922" y2="877" class="net_25,26,27"/>
  <line x1="225" x2="628" y1="877" y2="877" class="net_25,26,27"/>
  <line x1="145" x2="628" y1="942" y2="942" class="net_14,15,16,17,18,19,20,21,22,23,24"/>
  <line x1="144.5" x2="144.5" y1="962.5" y2="1007" class="net_2,3,4,5,6,7,8,9,10,11,12,13"/>
  <line x1="144.5" x2="628" y1="1007" y2="1007" class="net_2,3,4,5,6,7,8,9,10,11,12,13"/>
  <line x1="570.5" x2="570.5" y1="256.5" y2="32" class="net_34"/>
  <line x1="570.5" x2="628" y1="32" y2="32" class="net_34"/>
  <line x1="571" x2="588" y1="277" y2="277" class="net_35"/>
  <line x1="588" x2="588" y1="277" y2="97" class="net_35"/>
  <line x1="588" x2="628" y1="97" y2="97" class="net_35"/>
  <line x1="571" x2="598" y1="297" y2="297" class="net_36"/>
  <line x1="598" x2="598" y1="297" y2="162" class="net_36"/>
  <line x1="598" x2="628" y1="162" y2="162" class="net_36"/>
  <line x1="571" x2="608" y1="317" y2="317" class="net_37"/>
  <line x1="608" x2="608" y1="317" y2="227" class="net_37"/>
  <line x1="608" x2="628" y1="227" y2="227" class="net_37"/>
  <line x1="571" x2="618" y1="337" y2="337" class="net_38"/>
  <line x1="618" x2="618" y1="337" y2="292" class="net_38"/>
  <line x1="618" x2="628" y1="292" y2="292" class="net_38"/>
  <line x1="571" x2="628" y1="357" y2="357" class="net_39"/>
  <line x1="570.5" x2="570.5" y1="377.5" y2="487" class="net_40"/>
  <line x1="570.5" x2="628" y1="487" y2="487" class="net_40"/>
  <line x1="40" x2="140.5" y1="739.5" y2="739.5" class="net_2,3,4,5,6,7,8,9,10,11,12,13,14,15,16,17,18,19,20,21,22,23,24,25,26,27,28,29,30,31,32,33"/>
  <line x1="140.5" x2="140.5" y1="739.5" y2="771.5" class="net_2,3,4,5,6,7,8,9,10,11,12,13,14,15,16,17,18,19,20,21,22,23,24,25,26,27,28,29,30,31,32,33"/>
  <line x1="531" x2="566" y1="267" y2="267" class="net_34,35,36,37,38,39,40"/>
</svg>
