<svg xmlns="http://www.w3.org/2000/svg" xmlns:xlink="http://www.w3.org/1999/xlink" xmlns:s="https://github.com/nturley/netlistsvg" width="940" height="632.5">
  <style>svg {
    stroke:#000;
    fill:none;
  }
  text {
    fill:#000;
    stroke:none;
    font-size:10px;
    font-weight: bold;
    font-family: "Courier New", monospace;
  }
  .nodelabel {
    text-anchor: middle;
  }
  .inputPortLabel {
    text-anchor: end;
  }
  .splitjoinBody {
    fill:#000;
  }</style>
  <g s:type="add" transform="translate(664.6666666666666,195)" s:width="25" s:height="25" id="cell_$add$schematics/sv2v/pc_sv2v.v:40$5">
    <s:alias val="$add"/>
    <circle r="12.5" cx="12.5" cy="12.5" class="cell_$add$schematics/sv2v/pc_sv2v.v:40$5"/>
    <line x1="7.5" x2="17.5" y1="12.5" y2="12.5" class="cell_$add$schematics/sv2v/pc_sv2v.v:40$5"/>
    <line x1="12.5" x2="12.5" y1="7.5" y2="17.5" class="cell_$add$schematics/sv2v/pc_sv2v.v:40$5"/>
    <g s:x="3" s:y="5" s:pid="A"/>
    <g s:x="3" s:y="20" s:pid="B"/>
    <g s:x="25" s:y="12.5" s:pid="Y"/>
  </g>
  <g s:type="add" transform="translate(664.6666666666666,130)" s:width="25" s:height="25" id="cell_$add$schematics/sv2v/pc_sv2v.v:42$6">
    <s:alias val="$add"/>
    <circle r="12.5" cx="12.5" cy="12.5" class="cell_$add$schematics/sv2v/pc_sv2v.v:42$6"/>
    <line x1="7.5" x2="17.5" y1="12.5" y2="12.5" class="cell_$add$schematics/sv2v/pc_sv2v.v:42$6"/>
    <line x1="12.5" x2="12.5" y1="7.5" y2="17.5" class="cell_$add$schematics/sv2v/pc_sv2v.v:42$6"/>
    <g s:x="3" s:y="5" s:pid="A"/>
    <g s:x="3" s:y="20" s:pid="B"/>
    <g s:x="25" s:y="12.5" s:pid="Y"/>
  </g>
  <g s:type="and" transform="translate(292,275.5)" s:width="30" s:height="25" id="cell_$and$schematics/sv2v/pc_sv2v.v:39$2">
    <s:alias val="$and"/>
    <s:alias val="$logic_and"/>
    <s:alias val="$_AND_"/>
    <path d="M0,0 L0,25 L15,25 A15 12.5 0 0 0 15,0 Z" class="cell_$and$schematics/sv2v/pc_sv2v.v:39$2"/>
    <g s:x="0" s:y="5" s:pid="A"/>
    <g s:x="0" s:y="20" s:pid="B"/>
    <g s:x="30" s:y="12.5" s:pid="Y"/>
  </g>
  <g s:type="and" transform="translate(663,325.5)" s:width="30" s:height="25" id="cell_$logic_and$schematics/sv2v/pc_sv2v.v:39$4">
    <s:alias val="$and"/>
    <s:alias val="$logic_and"/>
    <s:alias val="$_AND_"/>
    <path d="M0,0 L0,25 L15,25 A15 12.5 0 0 0 15,0 Z" class="cell_$logic_and$schematics/sv2v/pc_sv2v.v:39$4"/>
    <g s:x="0" s:y="5" s:pid="A"/>
    <g s:x="0" s:y="20" s:pid="B"/>
    <g s:x="30" s:y="12.5" s:pid="Y"/>
  </g>
  <g s:type="generic" transform="translate(424,335)" s:width="30" s:height="40" id="cell_$ne$schematics/sv2v/pc_sv2v.v:39$3">
    <text x="15" y="-4" class="nodelabel cell_$ne$schematics/sv2v/pc_sv2v.v:39$3" s:attribute="ref">$reduce_bool</text>
    <rect width="30" height="20" s:generic="body" class="cell_$ne$schematics/sv2v/pc_sv2v.v:39$3"/>
    <g transform="translate(0,10)" s:x="0" s:y="10" s:pid="in0" id="port_$ne$schematics/sv2v/pc_sv2v.v:39$3~A">
      <text x="-3" y="-4" class="inputPortLabel cell_$ne$schematics/sv2v/pc_sv2v.v:39$3">A</text>
    </g>
    <g transform="translate(30,10)" s:x="30" s:y="10" s:pid="out0" id="port_$ne$schematics/sv2v/pc_sv2v.v:39$3~Y">
      <text x="5" y="-4" style="fill:#000; stroke:none" class="cell_$ne$schematics/sv2v/pc_sv2v.v:39$3">Y</text>
    </g>
  </g>
  <g s:type="generic" transform="translate(507.5,32)" s:width="30" s:height="40" id="cell_$procdff$20">
    <text x="15" y="-4" class="nodelabel cell_$procdff$20" s:attribute="ref">$adff</text>
    <rect width="30" height="60" s:generic="body" class="cell_$procdff$20"/>
    <g transform="translate(0,10)" s:x="0" s:y="10" s:pid="in0" id="port_$procdff$20~ARST">
      <text x="-3" y="-4" class="inputPortLabel cell_$procdff$20">ARST</text>
    </g>
    <g transform="translate(0,30)" s:x="0" s:y="10" s:pid="in0" id="port_$procdff$20~CLK">
      <text x="-3" y="-4" class="inputPortLabel cell_$procdff$20">CLK</text>
    </g>
    <g transform="translate(0,50)" s:x="0" s:y="10" s:pid="in0" id="port_$procdff$20~D">
      <text x="-3" y="-4" class="inputPortLabel cell_$procdff$20">D</text>
    </g>
    <g transform="translate(30,10)" s:x="30" s:y="10" s:pid="out0" id="port_$procdff$20~Q">
      <text x="5" y="-4" style="fill:#000; stroke:none" class="cell_$procdff$20">Q</text>
    </g>
  </g>
  <g s:type="generic" transform="translate(191,439)" s:width="30" s:height="40" id="cell_$procdff$21">
    <text x="15" y="-4" class="nodelabel cell_$procdff$21" s:attribute="ref">$adff</text>
    <rect width="30" height="60" s:generic="body" class="cell_$procdff$21"/>
    <g transform="translate(0,10)" s:x="0" s:y="10" s:pid="in0" id="port_$procdff$21~ARST">
      <text x="-3" y="-4" class="inputPortLabel cell_$procdff$21">ARST</text>
    </g>
    <g transform="translate(0,30)" s:x="0" s:y="10" s:pid="in0" id="port_$procdff$21~CLK">
      <text x="-3" y="-4" class="inputPortLabel cell_$procdff$21">CLK</text>
    </g>
    <g transform="translate(0,50)" s:x="0" s:y="10" s:pid="in0" id="port_$procdff$21~D">
      <text x="-3" y="-4" class="inputPortLabel cell_$procdff$21">D</text>
    </g>
    <g transform="translate(30,10)" s:x="30" s:y="10" s:pid="out0" id="port_$procdff$21~Q">
      <text x="5" y="-4" style="fill:#000; stroke:none" class="cell_$procdff$21">Q</text>
    </g>
  </g>
  <g s:type="mux" transform="translate(107.66666666666667,514.5)" s:width="20" s:height="40" id="cell_$procmux$10">
    <s:alias val="$pmux"/>
    <s:alias val="$mux"/>
    <s:alias val="$_MUX_"/>
    <path d="M0,0 L20,10 L20,30 L0,40 Z" class="cell_$procmux$10"/>
    <g s:x="0" s:y="10" s:pid="A"/>
    <g s:x="0" s:y="30" s:pid="B"/>
    <g s:x="10" s:y="35" s:pid="S"/>
    <g s:x="20" s:y="20" s:pid="Y"/>
  </g>
  <g s:type="mux" transform="translate(731.3333333333334,177.5)" s:width="20" s:height="40" id="cell_$procmux$13">
    <s:alias val="$pmux"/>
    <s:alias val="$mux"/>
    <s:alias val="$_MUX_"/>
    <path d="M0,0 L20,10 L20,30 L0,40 Z" class="cell_$procmux$13"/>
    <g s:x="0" s:y="10" s:pid="A"/>
    <g s:x="0" s:y="30" s:pid="B"/>
    <g s:x="10" s:y="35" s:pid="S"/>
    <g s:x="20" s:y="20" s:pid="Y"/>
  </g>
  <g s:type="mux" transform="translate(802.3333333333334,167.5)" s:width="20" s:height="40" id="cell_$procmux$15">
    <s:alias val="$pmux"/>
    <s:alias val="$mux"/>
    <s:alias val="$_MUX_"/>
    <path d="M0,0 L20,10 L20,30 L0,40 Z" class="cell_$procmux$15"/>
    <g s:x="0" s:y="10" s:pid="A"/>
    <g s:x="0" s:y="30" s:pid="B"/>
    <g s:x="10" s:y="35" s:pid="S"/>
    <g s:x="20" s:y="20" s:pid="Y"/>
  </g>
  <g s:type="mux" transform="translate(876,368)" s:width="20" s:height="40" id="cell_$procmux$18">
    <s:alias val="$pmux"/>
    <s:alias val="$mux"/>
    <s:alias val="$_MUX_"/>
    <path d="M0,0 L20,10 L20,30 L0,40 Z" class="cell_$procmux$18"/>
    <g s:x="0" s:y="10" s:pid="A"/>
    <g s:x="0" s:y="30" s:pid="B"/>
    <g s:x="10" s:y="35" s:pid="S"/>
    <g s:x="20" s:y="20" s:pid="Y"/>
  </g>
  <g s:type="mux" transform="translate(876,504.5)" s:width="20" s:height="40" id="cell_$procmux$7">
    <s:alias val="$pmux"/>
    <s:alias val="$mux"/>
    <s:alias val="$_MUX_"/>
    <path d="M0,0 L20,10 L20,30 L0,40 Z" class="cell_$procmux$7"/>
    <g s:x="0" s:y="10" s:pid="A"/>
    <g s:x="0" s:y="30" s:pid="B"/>
    <g s:x="10" s:y="35" s:pid="S"/>
    <g s:x="20" s:y="20" s:pid="Y"/>
  </g>
  <g s:type="inputExt" transform="translate(101,459.5)" s:width="30" s:height="20" id="cell_clk">
    <text x="15" y="-4" class="nodelabel cell_clk" s:attribute="ref">clk</text>
    <s:alias val="$_inputExt_"/>
    <path d="M0,0 L0,20 L15,20 L30,10 L15,0 Z" class="cell_clk"/>
    <g s:x="28" s:y="10" s:pid="Y"/>
  </g>
  <g s:type="inputExt" transform="translate(101,32.5)" s:width="30" s:height="20" id="cell_rst">
    <text x="15" y="-4" class="nodelabel cell_rst" s:attribute="ref">rst</text>
    <s:alias val="$_inputExt_"/>
    <path d="M0,0 L0,20 L15,20 L30,10 L15,0 Z" class="cell_rst"/>
    <g s:x="28" s:y="10" s:pid="Y"/>
  </g>
  <g s:type="inputExt" transform="translate(12,599.5)" s:width="30" s:height="20" id="cell_block_rst">
    <text x="15" y="-4" class="nodelabel cell_block_rst" s:attribute="ref">block_rst</text>
    <s:alias val="$_inputExt_"/>
    <path d="M0,0 L0,20 L15,20 L30,10 L15,0 Z" class="cell_block_rst"/>
    <g s:x="28" s:y="10" s:pid="Y"/>
  </g>
  <g s:type="inputExt" transform="translate(728,358)" s:width="30" s:height="20" id="cell_pc_en">
    <text x="15" y="-4" class="nodelabel cell_pc_en" s:attribute="ref">pc_en</text>
    <s:alias val="$_inputExt_"/>
    <path d="M0,0 L0,20 L15,20 L30,10 L15,0 Z" class="cell_pc_en"/>
    <g s:x="28" s:y="10" s:pid="Y"/>
  </g>
  <g s:type="inputExt" transform="translate(424,270)" s:width="30" s:height="20" id="cell_branch_en">
    <text x="15" y="-4" class="nodelabel cell_branch_en" s:attribute="ref">branch_en</text>
    <s:alias val="$_inputExt_"/>
    <path d="M0,0 L0,20 L15,20 L30,10 L15,0 Z" class="cell_branch_en"/>
    <g s:x="28" s:y="10" s:pid="Y"/>
  </g>
  <g s:type="inputExt" transform="translate(424,205)" s:width="30" s:height="20" id="cell_branch_offset">
    <text x="15" y="-4" class="nodelabel cell_branch_offset" s:attribute="ref">branch_offset</text>
    <s:alias val="$_inputExt_"/>
    <path d="M0,0 L0,20 L15,20 L30,10 L15,0 Z" class="cell_branch_offset"/>
    <g s:x="28" s:y="10" s:pid="Y"/>
  </g>
  <g s:type="inputExt" transform="translate(793,589.5)" s:width="30" s:height="20" id="cell_nzp_en">
    <text x="15" y="-4" class="nodelabel cell_nzp_en" s:attribute="ref">nzp_en</text>
    <s:alias val="$_inputExt_"/>
    <path d="M0,0 L0,20 L15,20 L30,10 L15,0 Z" class="cell_nzp_en"/>
    <g s:x="28" s:y="10" s:pid="Y"/>
  </g>
  <g s:type="inputExt" transform="translate(793,524.5)" s:width="30" s:height="20" id="cell_nzp_flag">
    <text x="15" y="-4" class="nodelabel cell_nzp_flag" s:attribute="ref">nzp_flag</text>
    <s:alias val="$_inputExt_"/>
    <path d="M0,0 L0,20 L15,20 L30,10 L15,0 Z" class="cell_nzp_flag"/>
    <g s:x="28" s:y="10" s:pid="Y"/>
  </g>
  <g s:type="inputExt" transform="translate(191,285.5)" s:width="30" s:height="20" id="cell_nzp_mask">
    <text x="15" y="-4" class="nodelabel cell_nzp_mask" s:attribute="ref">nzp_mask</text>
    <s:alias val="$_inputExt_"/>
    <path d="M0,0 L0,20 L15,20 L30,10 L15,0 Z" class="cell_nzp_mask"/>
    <g s:x="28" s:y="10" s:pid="Y"/>
  </g>
  <g s:type="outputExt" transform="translate(876,32.5)" s:width="30" s:height="20" id="cell_pc_out">
    <text x="15" y="-4" class="nodelabel cell_pc_out" s:attribute="ref">pc_out</text>
    <s:alias val="$_outputExt_"/>
    <path d="M30,0 L30,20 L15,20 L0,10 L15,0 Z" class="cell_pc_out"/>
    <g s:x="0" s:y="10" s:pid="A"/>
  </g>
  <g s:type="outputExt" transform="translate(876,439.5)" s:width="30" s:height="20" id="cell_nzp_out">
    <text x="15" y="-4" class="nodelabel cell_nzp_out" s:attribute="ref">nzp_out</text>
    <s:alias val="$_outputExt_"/>
    <path d="M30,0 L30,20 L15,20 L0,10 L15,0 Z" class="cell_nzp_out"/>
    <g s:x="0" s:y="10" s:pid="A"/>
  </g>
  <g s:type="constant" transform="translate(424,140)" s:width="30" s:height="20" id="cell_1">
    <text x="15" y="-4" class="nodelabel cell_1" s:attribute="ref">1</text>
    <s:alias val="$_constant_"/>
    <rect width="30" height="20" class="cell_1"/>
    <g s:x="30" s:y="10" s:pid="Y"/>
  </g>
  <g s:type="constant" transform="translate(292,345.5)" s:width="30" s:height="20" id="cell_00000000000000000000000000000">
    <text x="15" y="-4" class="nodelabel cell_00000000000000000000000000000" s:attribute="ref">0x0</text>
    <s:alias val="$_constant_"/>
    <rect width="30" height="20" class="cell_00000000000000000000000000000"/>
    <g s:x="30" s:y="10" s:pid="Y"/>
  </g>
  <g s:type="constant" transform="translate(12,534.5)" s:width="30" s:height="20" id="cell_000">
    <text x="15" y="-4" class="nodelabel cell_000" s:attribute="ref">000</text>
    <s:alias val="$_constant_"/>
    <rect width="30" height="20" class="cell_000"/>
    <g s:x="30" s:y="10" s:pid="Y"/>
  </g>
  <g s:type="constant" transform="translate(793,388)" s:width="30" s:height="20" id="cell_00000000000000000000000000000000">
    <text x="15" y="-4" class="nodelabel cell_00000000000000000000000000000000" s:attribute="ref">0x0</text>
    <s:alias val="$_constant_"/>
    <rect width="30" height="20" class="cell_00000000000000000000000000000000"/>
    <g s:x="30" s:y="10" s:pid="Y"/>
  </g>
  <g s:type="join" transform="translate(376,325)" s:width="4" s:height="40" id="cell_$join$,125,126,127,233,234,235,236,237,238,239,240,241,242,243,244,245,246,247,248,249,250,251,252,253,254,255,256,257,258,259,260,261,">
    <rect width="5" height="40" class="splitjoinBody" s:generic="body"/>
    <s:alias val="$_join_"/>
    <g s:x="5" s:y="20" s:pid="out"/>
    <g transform="translate(0,10)" s:x="0" s:y="10" s:pid="in0">
      <text x="-3" y="-4" class="inputPortLabel">0:2</text>
    </g>
    <g transform="translate(0,30)" s:x="0" s:y="10" s:pid="in0">
      <text x="-3" y="-4" class="inputPortLabel">3:31</text>
    </g>
  </g>
  <line x1="538.5" x2="638" y1="42.5" y2="42.5" class="net_26,27,28,29,30,31,32,33,34,35,36,37,38,39,40,41,42,43,44,45,46,47,48,49,50,51,52,53,54,55,56,57"/>
  <line x1="638" x2="638" y1="42.5" y2="200" class="net_26,27,28,29,30,31,32,33,34,35,36,37,38,39,40,41,42,43,44,45,46,47,48,49,50,51,52,53,54,55,56,57"/>
  <circle cx="638" cy="42.5" r="2" style="fill:#000" class="net_26,27,28,29,30,31,32,33,34,35,36,37,38,39,40,41,42,43,44,45,46,47,48,49,50,51,52,53,54,55,56,57"/>
  <line x1="638" x2="667.6666666666666" y1="200" y2="200" class="net_26,27,28,29,30,31,32,33,34,35,36,37,38,39,40,41,42,43,44,45,46,47,48,49,50,51,52,53,54,55,56,57"/>
  <line x1="538.5" x2="638" y1="42.5" y2="42.5" class="net_26,27,28,29,30,31,32,33,34,35,36,37,38,39,40,41,42,43,44,45,46,47,48,49,50,51,52,53,54,55,56,57"/>
  <line x1="638" x2="638" y1="42.5" y2="135" class="net_26,27,28,29,30,31,32,33,34,35,36,37,38,39,40,41,42,43,44,45,46,47,48,49,50,51,52,53,54,55,56,57"/>
  <circle cx="638" cy="135" r="2" style="fill:#000" class="net_26,27,28,29,30,31,32,33,34,35,36,37,38,39,40,41,42,43,44,45,46,47,48,49,50,51,52,53,54,55,56,57"/>
  <line x1="638" x2="667.6666666666666" y1="135" y2="135" class="net_26,27,28,29,30,31,32,33,34,35,36,37,38,39,40,41,42,43,44,45,46,47,48,49,50,51,52,53,54,55,56,57"/>
  <line x1="538.5" x2="768" y1="42.5" y2="42.5" class="net_26,27,28,29,30,31,32,33,34,35,36,37,38,39,40,41,42,43,44,45,46,47,48,49,50,51,52,53,54,55,56,57"/>
  <line x1="768" x2="768" y1="42.5" y2="177.5" class="net_26,27,28,29,30,31,32,33,34,35,36,37,38,39,40,41,42,43,44,45,46,47,48,49,50,51,52,53,54,55,56,57"/>
  <circle cx="768" cy="42.5" r="2" style="fill:#000" class="net_26,27,28,29,30,31,32,33,34,35,36,37,38,39,40,41,42,43,44,45,46,47,48,49,50,51,52,53,54,55,56,57"/>
  <line x1="768" x2="802.3333333333334" y1="177.5" y2="177.5" class="net_26,27,28,29,30,31,32,33,34,35,36,37,38,39,40,41,42,43,44,45,46,47,48,49,50,51,52,53,54,55,56,57"/>
  <line x1="538.5" x2="876" y1="42.5" y2="42.5" class="net_26,27,28,29,30,31,32,33,34,35,36,37,38,39,40,41,42,43,44,45,46,47,48,49,50,51,52,53,54,55,56,57"/>
  <line x1="452" x2="667.6666666666666" y1="215" y2="215" class="net_7,8,9,10,11,12,13,14,15,16,17,18"/>
  <line x1="454" x2="667.6666666666666" y1="150" y2="150" class="net_232"/>
  <line x1="222" x2="267" y1="449.5" y2="449.5" class="net_58,59,60"/>
  <line x1="267" x2="267" y1="449.5" y2="280.5" class="net_58,59,60"/>
  <circle cx="267" cy="449.5" r="2" style="fill:#000" class="net_58,59,60"/>
  <line x1="267" x2="292" y1="280.5" y2="280.5" class="net_58,59,60"/>
  <line x1="222" x2="851" y1="449.5" y2="449.5" class="net_58,59,60"/>
  <line x1="851" x2="851" y1="449.5" y2="514.5" class="net_58,59,60"/>
  <circle cx="851" cy="449.5" r="2" style="fill:#000" class="net_58,59,60"/>
  <line x1="851" x2="876" y1="514.5" y2="514.5" class="net_58,59,60"/>
  <line x1="222" x2="876" y1="449.5" y2="449.5" class="net_58,59,60"/>
  <line x1="219" x2="292" y1="295.5" y2="295.5" class="net_23,24,25"/>
  <line x1="452" x2="638" y1="280" y2="280" class="net_6"/>
  <line x1="638" x2="638" y1="280" y2="330.5" class="net_6"/>
  <line x1="638" x2="663" y1="330.5" y2="330.5" class="net_6"/>
  <line x1="455" x2="663" y1="345.5" y2="345.5" class="net_128"/>
  <line x1="382" x2="424" y1="345.5" y2="345.5" class="net_125,126,127,233,234,235,236,237,238,239,240,241,242,243,244,245,246,247,248,249,250,251,252,253,254,255,256,257,258,259,260,261"/>
  <line x1="129" x2="507.5" y1="42.5" y2="42.5" class="net_3"/>
  <line x1="129" x2="151" y1="42.5" y2="42.5" class="net_3"/>
  <line x1="151" x2="151" y1="42.5" y2="449.5" class="net_3"/>
  <circle cx="151" cy="42.5" r="2" style="fill:#000" class="net_3"/>
  <line x1="151" x2="191" y1="449.5" y2="449.5" class="net_3"/>
  <line x1="129" x2="141" y1="469.5" y2="469.5" class="net_2"/>
  <line x1="141" x2="141" y1="469.5" y2="62.5" class="net_2"/>
  <circle cx="141" cy="469.5" r="2" style="fill:#000" class="net_2"/>
  <line x1="141" x2="507.5" y1="62.5" y2="62.5" class="net_2"/>
  <line x1="129" x2="191" y1="469.5" y2="469.5" class="net_2"/>
  <line x1="896" x2="928" y1="388" y2="388" class="net_130,131,132,133,134,135,136,137,138,139,140,141,142,143,144,145,146,147,148,149,150,151,152,153,154,155,156,157,158,159,160,161"/>
  <line x1="928" x2="928" y1="388" y2="12" class="net_130,131,132,133,134,135,136,137,138,139,140,141,142,143,144,145,146,147,148,149,150,151,152,153,154,155,156,157,158,159,160,161"/>
  <line x1="928" x2="392" y1="12" y2="12" class="net_130,131,132,133,134,135,136,137,138,139,140,141,142,143,144,145,146,147,148,149,150,151,152,153,154,155,156,157,158,159,160,161"/>
  <line x1="392" x2="392" y1="12" y2="82.5" class="net_130,131,132,133,134,135,136,137,138,139,140,141,142,143,144,145,146,147,148,149,150,151,152,153,154,155,156,157,158,159,160,161"/>
  <line x1="392" x2="507.5" y1="82.5" y2="82.5" class="net_130,131,132,133,134,135,136,137,138,139,140,141,142,143,144,145,146,147,148,149,150,151,152,153,154,155,156,157,158,159,160,161"/>
  <line x1="127.66666666666667" x2="141" y1="534.5" y2="534.5" class="net_162,163,164"/>
  <line x1="141" x2="141" y1="534.5" y2="489.5" class="net_162,163,164"/>
  <line x1="141" x2="191" y1="489.5" y2="489.5" class="net_162,163,164"/>
  <line x1="896" x2="928" y1="524.5" y2="524.5" class="net_165,166,167"/>
  <line x1="928" x2="928" y1="524.5" y2="619.5" class="net_165,166,167"/>
  <line x1="928" x2="86" y1="619.5" y2="619.5" class="net_165,166,167"/>
  <line x1="86" x2="86" y1="619.5" y2="524.5" class="net_165,166,167"/>
  <line x1="86" x2="107.66666666666667" y1="524.5" y2="524.5" class="net_165,166,167"/>
  <line x1="42" x2="107.66666666666667" y1="544.5" y2="544.5" class="net_262,263,264"/>
  <line x1="40" x2="117.66666666666667" y1="609.5" y2="609.5" class="net_4"/>
  <line x1="117.66666666666667" x2="117.66666666666667" y1="609.5" y2="549.5" class="net_4"/>
  <line x1="40" x2="76" y1="609.5" y2="609.5" class="net_4"/>
  <line x1="76" x2="76" y1="609.5" y2="418" class="net_4"/>
  <line x1="76" x2="886" y1="418" y2="418" class="net_4"/>
  <circle cx="76" cy="609.5" r="2" style="fill:#000" class="net_4"/>
  <line x1="886" x2="886" y1="418" y2="403" class="net_4"/>
  <line x1="689.6666666666666" x2="703" y1="142.5" y2="142.5" class="net_93,94,95,96,97,98,99,100,101,102,103,104,105,106,107,108,109,110,111,112,113,114,115,116,117,118,119,120,121,122,123,124"/>
  <line x1="703" x2="703" y1="142.5" y2="187.5" class="net_93,94,95,96,97,98,99,100,101,102,103,104,105,106,107,108,109,110,111,112,113,114,115,116,117,118,119,120,121,122,123,124"/>
  <line x1="703" x2="731.3333333333334" y1="187.5" y2="187.5" class="net_93,94,95,96,97,98,99,100,101,102,103,104,105,106,107,108,109,110,111,112,113,114,115,116,117,118,119,120,121,122,123,124"/>
  <line x1="689.6666666666666" x2="731.3333333333334" y1="207.5" y2="207.5" class="net_61,62,63,64,65,66,67,68,69,70,71,72,73,74,75,76,77,78,79,80,81,82,83,84,85,86,87,88,89,90,91,92"/>
  <line x1="693" x2="741.3333333333334" y1="338" y2="338" class="net_129"/>
  <line x1="741.3333333333334" x2="741.3333333333334" y1="338" y2="212.5" class="net_129"/>
  <line x1="751.3333333333334" x2="802.3333333333334" y1="197.5" y2="197.5" class="net_168,169,170,171,172,173,174,175,176,177,178,179,180,181,182,183,184,185,186,187,188,189,190,191,192,193,194,195,196,197,198,199"/>
  <line x1="756" x2="812.3333333333334" y1="368" y2="368" class="net_5"/>
  <line x1="812.3333333333334" x2="812.3333333333334" y1="368" y2="202.5" class="net_5"/>
  <line x1="822.3333333333334" x2="851" y1="187.5" y2="187.5" class="net_200,201,202,203,204,205,206,207,208,209,210,211,212,213,214,215,216,217,218,219,220,221,222,223,224,225,226,227,228,229,230,231"/>
  <line x1="851" x2="851" y1="187.5" y2="378" class="net_200,201,202,203,204,205,206,207,208,209,210,211,212,213,214,215,216,217,218,219,220,221,222,223,224,225,226,227,228,229,230,231"/>
  <line x1="851" x2="876" y1="378" y2="378" class="net_200,201,202,203,204,205,206,207,208,209,210,211,212,213,214,215,216,217,218,219,220,221,222,223,224,225,226,227,228,229,230,231"/>
  <line x1="823" x2="876" y1="398" y2="398" class="net_265,266,267,268,269,270,271,272,273,274,275,276,277,278,279,280,281,282,283,284,285,286,287,288,289,290,291,292,293,294,295,296"/>
  <line x1="821" x2="876" y1="534.5" y2="534.5" class="net_20,21,22"/>
  <line x1="821" x2="886" y1="599.5" y2="599.5" class="net_19"/>
  <line x1="886" x2="886" y1="599.5" y2="539.5" class="net_19"/>
  <line x1="322" x2="332" y1="288" y2="288" class="net_125,126,127"/>
  <line x1="332" x2="332" y1="288" y2="335.5" class="net_125,126,127"/>
  <line x1="332" x2="376" y1="335.5" y2="335.5" class="net_125,126,127"/>
  <line x1="322" x2="376" y1="355.5" y2="355.5" class="net_233,234,235,236,237,238,239,240,241,242,243,244,245,246,247,248,249,250,251,252,253,254,255,256,257,258,259,260,261"/>
</svg>
